<svg width="50" height="50" viewBox="0 0 50 50" fill="none" xmlns="http://www.w3.org/2000/svg">
<g opacity="0.4">
<path d="M30.0382 11.4376C29.0465 11.2544 28.1356 11.8873 27.9468 12.8553C27.758 13.8234 28.3929 14.7686 29.3577 14.9581C32.2624 15.5243 34.5052 17.7728 35.0737 20.6875C35.2356 21.5265 35.9742 22.1386 36.8249 22.1386C36.939 22.1386 37.0531 22.1281 37.1693 22.1073C38.1341 21.9137 38.7689 20.9706 38.5801 20.0004C37.7316 15.6472 34.3808 12.2849 30.0382 11.4376Z" fill="#9B51E0"/>
<path d="M29.9086 4.18339C29.4438 4.11677 28.977 4.25418 28.6056 4.54981C28.2239 4.8496 27.9853 5.28264 27.9334 5.76772C27.8234 6.7483 28.5309 7.63519 29.5102 7.74553C36.2637 8.49918 41.5129 13.7601 42.2723 20.5347C42.374 21.4424 43.1354 22.1273 44.0442 22.1273C44.1126 22.1273 44.179 22.1232 44.2475 22.1148C44.7226 22.0628 45.1459 21.8275 45.4447 21.4528C45.7414 21.078 45.8762 20.6117 45.8223 20.1349C44.8762 11.6824 38.3343 5.12233 29.9086 4.18339Z" fill="#9B51E0"/>
</g>
<path fill-rule="evenodd" clip-rule="evenodd" d="M22.9829 27.0261C31.2935 35.3343 33.1788 25.7226 38.4702 31.0103C43.5715 36.1102 46.5035 37.1319 40.0402 43.5934C39.2306 44.244 34.0868 52.0716 16.0097 33.9995C-2.06966 15.9252 5.75338 10.7762 6.40419 9.96681C12.8831 3.48742 13.8873 6.43646 18.9886 11.5363C24.28 16.8263 14.6723 18.7178 22.9829 27.0261Z" fill="#9B51E0"/>
</svg>
