<svg width="50" height="50" viewBox="0 0 50 50" fill="none" xmlns="http://www.w3.org/2000/svg">
<path opacity="0.4" d="M33.4907 4.16687H40.5448C43.4662 4.16687 45.8334 6.55406 45.8334 9.50013V16.6138C45.8334 19.5599 43.4662 21.9471 40.5448 21.9471H33.4907C30.5693 21.9471 28.2021 19.5599 28.2021 16.6138V9.50013C28.2021 6.55406 30.5693 4.16687 33.4907 4.16687Z" fill="#EB5757"/>
<path d="M16.5094 28.0534C19.4308 28.0534 21.798 30.4405 21.798 33.3866V40.5003C21.798 43.4444 19.4308 45.8335 16.5094 45.8335H9.45534C6.53395 45.8335 4.16675 43.4444 4.16675 40.5003V33.3866C4.16675 30.4405 6.53395 28.0534 9.45534 28.0534H16.5094ZM40.5448 28.0534C43.4662 28.0534 45.8334 30.4405 45.8334 33.3866V40.5003C45.8334 43.4444 43.4662 45.8335 40.5448 45.8335H33.4907C30.5693 45.8335 28.2021 43.4444 28.2021 40.5003V33.3866C28.2021 30.4405 30.5693 28.0534 33.4907 28.0534H40.5448ZM16.5094 4.16687C19.4308 4.16687 21.798 6.55406 21.798 9.50013V16.6138C21.798 19.5599 19.4308 21.9471 16.5094 21.9471H9.45534C6.53395 21.9471 4.16675 19.5599 4.16675 16.6138V9.50013C4.16675 6.55406 6.53395 4.16687 9.45534 4.16687H16.5094Z" fill="#EB5757"/>
</svg>
