<svg width="50" height="50" viewBox="0 0 50 50" fill="none" xmlns="http://www.w3.org/2000/svg">
<path d="M19.334 39.8992C18.8341 39.8992 18.3343 39.7085 17.953 39.3271C17.1902 38.5644 17.1902 37.3277 17.953 36.565L29.0015 25.5165C29.7643 24.7537 31.0009 24.7537 31.7636 25.5165C32.5263 26.2793 32.5264 27.5159 31.7636 28.2786L20.7151 39.3272C20.3337 39.7086 19.8339 39.8992 19.334 39.8992Z" fill="white"/>
<path d="M8.4584 22.8838L22.2477 15.5287C23.0924 15.0781 24.0174 14.8498 24.944 14.8409C24.9628 14.8414 24.9812 14.8438 25 14.8438C25.0188 14.8438 25.0372 14.8415 25.056 14.8409C25.9825 14.8498 26.9076 15.0781 27.7523 15.5287L41.5416 22.8839C42.181 23.2248 42.5781 23.886 42.5781 24.6094C42.5781 25.6881 43.4525 26.5625 44.5312 26.5625C45.61 26.5625 46.4844 25.6881 46.4844 24.6094C46.4844 22.4404 45.2948 20.4586 43.38 19.4372L29.5907 12.0821C28.75 11.6337 27.8613 11.3174 26.9531 11.1313V9.76562C26.9531 8.68867 27.8293 7.8125 28.9062 7.8125H40.625C43.8559 7.8125 46.4844 5.18398 46.4844 1.95312C46.4844 0.874414 45.61 0 44.5312 0C43.4525 0 42.5781 0.874414 42.5781 1.95312C42.5781 3.03008 41.702 3.90625 40.625 3.90625H28.9062C25.6754 3.90625 23.0469 6.53477 23.0469 9.76562V11.1313C22.1386 11.3174 21.25 11.6336 20.4093 12.0821L6.62002 19.4372C4.70518 20.4586 3.51562 22.4404 3.51562 24.6094V44.1406C3.51562 47.3715 6.14414 50 9.375 50H40.625C43.8559 50 46.4844 47.3715 46.4844 44.1406V32.4219C46.4844 31.3432 45.61 30.4688 44.5312 30.4688C43.4525 30.4688 42.5781 31.3432 42.5781 32.4219V44.1406C42.5781 45.2176 41.702 46.0938 40.625 46.0938H9.375C8.29805 46.0938 7.42188 45.2176 7.42188 44.1406V24.6094C7.42188 23.886 7.81904 23.2248 8.4584 22.8838Z" fill="url(#paint0_linear_2088_62)"/>
<path d="M30.3828 39.8992C31.4615 39.8992 32.3359 39.0248 32.3359 37.9461C32.3359 36.8674 31.4615 35.993 30.3828 35.993C29.3041 35.993 28.4297 36.8674 28.4297 37.9461C28.4297 39.0248 29.3041 39.8992 30.3828 39.8992Z" fill="white"/>
<path d="M19.334 28.8507C20.4127 28.8507 21.2871 27.9763 21.2871 26.8976C21.2871 25.8189 20.4127 24.9445 19.334 24.9445C18.2553 24.9445 17.3809 25.8189 17.3809 26.8976C17.3809 27.9763 18.2553 28.8507 19.334 28.8507Z" fill="white"/>
<defs>
<linearGradient id="paint0_linear_2088_62" x1="3.51563" y1="0" x2="48.9344" y2="2.33457" gradientUnits="userSpaceOnUse">
<stop stop-color="#FF5C65"/>
<stop offset="0.53125" stop-color="#FD008B"/>
<stop offset="1" stop-color="#6500FC"/>
</linearGradient>
</defs>
</svg>
