<svg width="1290" height="790" viewBox="0 0 1290 790" fill="none" xmlns="http://www.w3.org/2000/svg">
<path opacity="0.08" d="M1290 789C1290 617.935 1222.04 453.877 1101.08 332.916C980.123 211.955 816.065 144 645 144C473.935 144 309.877 211.955 188.916 332.916C67.9552 453.877 2.583e-05 617.935 0 789L645 789H1290Z" fill="url(#paint0_linear_2293_3437)"/>
<path d="M297.938 574.277C277.612 571.673 262.338 559.765 230.06 552.569C197.781 545.373 150.132 541.729 147.822 506.746C145.512 471.762 214.761 477.289 233.801 483.667C248.599 488.621 265.337 494.309 280.938 493.87C297.063 493.414 308.697 486.182 324.717 484.32C345.708 481.877 368.073 488.274 372.576 517.235C377.079 546.195 352.763 561.059 346.014 564.804C336.315 570.214 318.267 576.885 297.938 574.277Z" fill="#CCDE78"/>
<path d="M314.067 537.028C312.152 536.956 310.237 536.879 308.323 536.786C262.419 534.634 159.694 508.773 158.662 508.515C158.425 508.464 158.201 508.365 158.003 508.226C157.805 508.086 157.637 507.907 157.509 507.701C157.381 507.495 157.296 507.265 157.259 507.026C157.222 506.786 157.234 506.541 157.294 506.306C157.353 506.071 157.46 505.85 157.606 505.657C157.753 505.464 157.937 505.303 158.148 505.182C158.358 505.062 158.591 504.985 158.831 504.957C159.072 504.928 159.316 504.948 159.549 505.016C160.577 505.274 262.951 531.042 308.488 533.178C354.142 535.311 399.449 532.118 399.9 532.086C400.137 532.069 400.375 532.098 400.6 532.173C400.825 532.248 401.034 532.366 401.213 532.521C401.393 532.676 401.54 532.865 401.646 533.077C401.753 533.289 401.816 533.52 401.833 533.757C401.851 533.993 401.821 534.231 401.746 534.456C401.672 534.682 401.553 534.89 401.398 535.069C401.243 535.249 401.054 535.396 400.842 535.502C400.63 535.609 400.399 535.673 400.162 535.69C399.727 535.714 357.879 538.673 314.067 537.028Z" fill="white"/>
<path d="M223.076 522.854C222.797 522.845 222.523 522.77 222.278 522.637C222.032 522.503 221.821 522.314 221.661 522.084L199.356 490.125C199.221 489.93 199.124 489.711 199.073 489.479C199.022 489.247 199.018 489.008 199.059 488.774C199.101 488.541 199.188 488.317 199.316 488.118C199.443 487.918 199.609 487.745 199.804 487.609C199.998 487.473 200.218 487.377 200.45 487.326C200.681 487.275 200.921 487.27 201.154 487.312C201.388 487.353 201.611 487.441 201.811 487.568C202.011 487.696 202.184 487.862 202.319 488.057L224.624 520.016C224.898 520.41 225.004 520.895 224.92 521.367C224.836 521.838 224.569 522.257 224.177 522.532C223.855 522.757 223.469 522.871 223.076 522.854Z" fill="white"/>
<path d="M268.025 532.118C267.762 532.109 267.504 532.043 267.27 531.923C267.036 531.803 266.831 531.633 266.67 531.425L244.752 503.432C244.457 503.055 244.323 502.576 244.38 502.1C244.438 501.625 244.682 501.192 245.059 500.896C245.435 500.601 245.914 500.467 246.39 500.524C246.865 500.582 247.299 500.826 247.594 501.203L269.512 529.2C269.658 529.386 269.766 529.6 269.83 529.829C269.893 530.057 269.911 530.296 269.882 530.532C269.853 530.767 269.778 530.995 269.662 531.201C269.545 531.408 269.389 531.589 269.202 531.735C268.868 531.999 268.45 532.135 268.025 532.118Z" fill="white"/>
<path d="M298.206 567.589C297.842 567.575 297.491 567.452 297.199 567.235C296.907 567.019 296.687 566.719 296.568 566.375C296.449 566.031 296.437 565.66 296.533 565.309C296.628 564.958 296.828 564.644 297.105 564.408L333.475 533.489C333.84 533.179 334.313 533.026 334.791 533.065C335.268 533.104 335.711 533.331 336.021 533.696C336.331 534.061 336.483 534.535 336.444 535.012C336.405 535.49 336.178 535.932 335.813 536.242L299.443 567.158C299.1 567.452 298.658 567.606 298.206 567.589Z" fill="white"/>
<path d="M207.823 547.199C207.443 547.185 207.077 547.05 206.778 546.816C206.479 546.581 206.261 546.258 206.156 545.893C206.051 545.528 206.064 545.138 206.193 544.781C206.323 544.423 206.561 544.115 206.876 543.902L236.368 523.874C236.564 523.722 236.788 523.612 237.028 523.55C237.267 523.488 237.517 523.476 237.762 523.515C238.006 523.554 238.24 523.643 238.449 523.776C238.658 523.909 238.837 524.084 238.975 524.289C239.114 524.494 239.208 524.725 239.254 524.969C239.299 525.212 239.294 525.462 239.238 525.704C239.183 525.945 239.078 526.172 238.931 526.371C238.784 526.57 238.598 526.737 238.384 526.861L208.891 546.889C208.577 547.102 208.203 547.211 207.823 547.199Z" fill="white"/>
<path d="M334.872 536.71C334.58 536.698 334.295 536.616 334.042 536.47C333.789 536.325 333.574 536.121 333.416 535.875L306.375 493.664C306.116 493.26 306.029 492.771 306.132 492.303C306.235 491.835 306.519 491.427 306.923 491.169C307.326 490.911 307.816 490.823 308.284 490.926C308.752 491.029 309.16 491.313 309.418 491.717L336.468 533.928C336.645 534.206 336.743 534.527 336.751 534.857C336.759 535.187 336.677 535.512 336.513 535.798C336.35 536.085 336.111 536.321 335.823 536.481C335.535 536.642 335.209 536.721 334.88 536.71H334.872Z" fill="white"/>
<path d="M329.886 447.091C324.79 432.175 314.499 418.231 299.781 412.575C280.507 405.174 272.84 404.368 252.651 400.079C232.193 395.705 216.733 379.588 200.563 366.309C191.292 358.678 179.653 351.393 167.975 354.272C158.264 356.646 151.269 365.877 149.298 375.677C147.327 385.477 149.621 395.685 153.301 404.981C161.843 426.34 177.376 444.171 197.363 455.561C212.782 464.284 231.04 469.356 242.513 482.848C254.369 496.796 256.36 516.84 266.954 531.771C280.834 551.339 303.215 565.352 331.051 547.155C358.887 528.958 352.981 497.167 351.022 488.617C348.228 476.31 334.058 459.31 329.886 447.091Z" fill="url(#paint1_linear_2293_3437)"/>
<path d="M365.901 559.458C365.637 559.449 365.379 559.381 365.144 559.261C364.909 559.14 364.704 558.97 364.542 558.761C364.224 558.358 332.478 517.642 296.011 480.78C259.544 443.918 160.122 377.145 159.122 376.48C158.917 376.351 158.74 376.182 158.602 375.984C158.464 375.786 158.367 375.561 158.316 375.325C158.266 375.088 158.264 374.844 158.31 374.606C158.357 374.369 158.45 374.143 158.585 373.943C158.72 373.742 158.894 373.57 159.097 373.438C159.299 373.306 159.526 373.216 159.764 373.173C160.002 373.131 160.247 373.136 160.482 373.19C160.718 373.243 160.941 373.343 161.137 373.484C162.141 374.154 261.943 441.173 298.603 478.249C335.263 515.324 367.082 556.144 367.4 556.552C367.61 556.823 367.738 557.149 367.77 557.491C367.801 557.832 367.735 558.176 367.578 558.482C367.422 558.787 367.182 559.042 366.887 559.216C366.591 559.391 366.252 559.477 365.909 559.466L365.901 559.458Z" fill="white"/>
<path d="M172.405 430.644C171.966 430.627 171.549 430.451 171.23 430.149C170.912 429.846 170.715 429.439 170.675 429.001C170.636 428.564 170.757 428.128 171.016 427.773C171.275 427.419 171.654 427.171 172.082 427.076L220.417 416.393C220.648 416.342 220.888 416.336 221.122 416.378C221.355 416.419 221.578 416.506 221.778 416.633C221.979 416.761 222.152 416.926 222.288 417.121C222.424 417.315 222.52 417.534 222.572 417.766C222.623 417.997 222.628 418.237 222.587 418.47C222.546 418.704 222.459 418.927 222.331 419.127C222.204 419.327 222.038 419.5 221.844 419.637C221.65 419.773 221.431 419.869 221.199 419.92L172.864 430.599C172.714 430.633 172.559 430.648 172.405 430.644Z" fill="white"/>
<path d="M236.782 472.851C236.301 472.858 235.837 472.673 235.491 472.338C235.146 472.003 234.949 471.544 234.942 471.063C234.935 470.582 235.119 470.118 235.454 469.773C235.79 469.427 236.248 469.23 236.729 469.223L284.701 465.925C285.179 465.892 285.651 466.05 286.012 466.365C286.373 466.679 286.595 467.124 286.628 467.602C286.661 468.08 286.503 468.551 286.189 468.913C285.874 469.274 285.429 469.496 284.951 469.529L236.979 472.827L236.782 472.851Z" fill="white"/>
<path d="M312.801 497.054C312.367 497.038 311.953 496.867 311.636 496.57C311.318 496.274 311.118 495.874 311.072 495.442L303.731 423.02C303.699 422.553 303.85 422.091 304.152 421.732C304.455 421.374 304.885 421.147 305.351 421.1C305.818 421.053 306.284 421.189 306.652 421.48C307.02 421.77 307.26 422.193 307.323 422.658L314.668 495.079C314.715 495.555 314.572 496.03 314.27 496.401C313.968 496.772 313.531 497.008 313.055 497.058C312.97 497.063 312.886 497.062 312.801 497.054Z" fill="white"/>
<path d="M248.416 439.903C247.992 439.887 247.587 439.722 247.273 439.436C246.959 439.151 246.755 438.764 246.699 438.343L241.962 403.812C241.897 403.337 242.024 402.856 242.314 402.474C242.604 402.093 243.033 401.842 243.508 401.778C243.983 401.713 244.464 401.84 244.845 402.13C245.226 402.42 245.477 402.849 245.542 403.324L250.274 437.855C250.335 438.327 250.207 438.804 249.918 439.181C249.628 439.559 249.202 439.807 248.73 439.871C248.627 439.892 248.521 439.903 248.416 439.903Z" fill="white"/>
<path d="M266.466 517.489C266.018 517.473 265.592 517.292 265.27 516.979C264.948 516.666 264.754 516.245 264.726 515.797C264.698 515.349 264.838 514.907 265.117 514.557C265.397 514.206 265.798 513.972 266.241 513.901L322.4 504.673C322.868 504.606 323.343 504.726 323.724 505.005C324.105 505.285 324.362 505.702 324.438 506.169C324.515 506.635 324.405 507.113 324.133 507.5C323.862 507.886 323.449 508.151 322.985 508.237L266.829 517.469C266.709 517.487 266.588 517.494 266.466 517.489Z" fill="white"/>
<path d="M360.795 228.533C360.795 228.533 357.324 200.157 350.947 192.655C344.569 185.152 334.35 177.187 324.341 185.681C314.331 194.174 321.724 205.551 327.614 212.476C333.504 219.402 360.795 228.533 360.795 228.533Z" fill="#DFEDC5"/>
<path d="M367.65 247.077C367.65 247.077 348.86 231.157 340.185 229.545C331.51 227.932 319.964 227.86 318.102 237.869C316.239 247.879 327.837 251.414 335.839 252.902C343.841 254.389 367.65 247.077 367.65 247.077Z" fill="#DFEDC5"/>
<path d="M370.578 250.656C370.578 250.656 390.822 236.636 394.628 228.674C398.433 220.712 401.513 209.586 392.314 205.188C383.115 200.79 376.709 211.077 373.198 218.426C369.687 225.775 370.578 250.656 370.578 250.656Z" fill="#DFEDC5"/>
<path d="M380.046 284.116C379.704 284.069 379.384 283.919 379.129 283.687C378.873 283.454 378.694 283.15 378.615 282.814C366.755 232.794 348.945 212.113 333.183 196.654C333.022 196.495 332.894 196.306 332.807 196.098C332.719 195.89 332.673 195.666 332.672 195.44C332.671 195.214 332.714 194.99 332.799 194.781C332.884 194.572 333.01 194.381 333.169 194.221C333.328 194.06 333.516 193.932 333.725 193.845C333.933 193.757 334.156 193.711 334.382 193.71C334.608 193.709 334.832 193.752 335.041 193.837C335.251 193.922 335.441 194.048 335.602 194.207C351.706 210.001 369.899 231.113 381.961 282.019C382.065 282.462 381.99 282.929 381.751 283.316C381.512 283.704 381.13 283.981 380.687 284.087C380.477 284.136 380.26 284.145 380.046 284.116Z" fill="#7DB020"/>
<path d="M370.343 252.353C370.229 252.339 370.117 252.312 370.008 252.273C369.796 252.198 369.601 252.083 369.433 251.932C369.266 251.782 369.129 251.6 369.032 251.398C368.935 251.195 368.878 250.975 368.866 250.75C368.854 250.525 368.886 250.3 368.96 250.088C375.745 230.798 383.743 218.725 384.082 218.217C384.207 218.03 384.368 217.869 384.555 217.744C384.742 217.619 384.952 217.532 385.173 217.488C385.394 217.445 385.621 217.445 385.842 217.489C386.063 217.533 386.273 217.62 386.46 217.745C386.647 217.87 386.808 218.031 386.933 218.219C387.058 218.406 387.145 218.616 387.188 218.837C387.232 219.058 387.232 219.285 387.188 219.506C387.144 219.727 387.057 219.936 386.932 220.124C386.851 220.245 378.829 232.375 372.197 251.225C372.066 251.598 371.809 251.914 371.471 252.119C371.133 252.325 370.735 252.408 370.343 252.353Z" fill="#7DB020"/>
<path d="M676.414 244.255C676.414 244.255 680.51 217.092 686.839 210.058C693.168 203.023 703.194 195.646 712.562 204.079C721.931 212.513 714.542 223.232 708.7 229.726C702.859 236.22 676.414 244.255 676.414 244.255Z" fill="#CCDE78"/>
<path d="M669.312 261.871C669.312 261.871 687.788 247.089 696.165 245.774C704.542 244.46 715.632 244.702 717.127 254.365C718.623 264.028 707.416 267.112 699.684 268.325C691.952 269.539 669.312 261.871 669.312 261.871Z" fill="#CCDE78"/>
<path d="M666.416 265.217C666.416 265.217 647.348 251.205 643.909 243.448C640.47 235.692 637.826 224.925 646.767 220.954C655.709 216.983 661.594 227.037 664.755 234.177C667.915 241.316 666.416 265.217 666.416 265.217Z" fill="#CCDE78"/>
<path d="M656.422 297.1C656.751 297.063 657.062 296.928 657.313 296.713C657.565 296.497 657.746 296.211 657.833 295.891C670.572 248.173 688.232 228.791 703.789 214.367C703.948 214.22 704.076 214.043 704.167 213.846C704.257 213.649 704.308 213.437 704.316 213.22C704.324 213.004 704.29 212.788 704.215 212.585C704.139 212.382 704.025 212.196 703.878 212.037C703.731 211.878 703.554 211.75 703.357 211.659C703.16 211.569 702.947 211.518 702.731 211.51C702.515 211.502 702.299 211.536 702.096 211.611C701.893 211.687 701.707 211.801 701.548 211.948C685.652 226.686 667.613 246.472 654.648 295.044C654.58 295.303 654.576 295.575 654.636 295.836C654.696 296.097 654.819 296.339 654.993 296.542C655.168 296.745 655.389 296.903 655.638 297.001C655.887 297.1 656.156 297.137 656.422 297.108V297.1Z" fill="#7DB020"/>
<path d="M666.595 266.854C666.705 266.841 666.813 266.818 666.918 266.785C667.124 266.719 667.315 266.613 667.48 266.474C667.645 266.334 667.781 266.163 667.88 265.97C667.979 265.778 668.039 265.567 668.056 265.352C668.074 265.136 668.049 264.919 667.982 264.713C661.988 246.004 654.631 234.193 654.32 233.697C654.21 233.504 654.061 233.336 653.884 233.203C653.707 233.069 653.504 232.972 653.289 232.919C653.074 232.865 652.85 232.856 652.63 232.891C652.411 232.926 652.201 233.005 652.013 233.123C651.826 233.241 651.663 233.396 651.537 233.578C651.41 233.76 651.322 233.966 651.277 234.184C651.231 234.401 651.231 234.625 651.274 234.843C651.318 235.061 651.405 235.267 651.531 235.45C651.603 235.567 658.984 247.435 664.834 265.717C664.95 266.081 665.189 266.394 665.511 266.601C665.832 266.809 666.215 266.898 666.595 266.854Z" fill="#7DB020"/>
<path d="M1135.88 600.009C1135.88 600.009 1145.15 574.156 1152.73 568.48C1160.3 562.804 1171.56 557.511 1179.12 567.597C1186.68 577.683 1177.35 586.774 1170.36 592.011C1163.37 597.247 1135.88 600.009 1135.88 600.009Z" fill="#DFEDC5"/>
<path d="M1125.49 615.936C1125.49 615.936 1146.48 605.015 1154.95 605.346C1163.42 605.676 1174.25 608.067 1173.87 617.843C1173.49 627.619 1161.87 628.465 1154.05 628.159C1146.23 627.852 1125.49 615.936 1125.49 615.936Z" fill="#DFEDC5"/>
<path d="M1122 618.653C1122 618.653 1106.01 601.21 1104.13 592.942C1102.26 584.673 1101.75 573.592 1111.29 571.431C1120.83 569.27 1124.66 580.263 1126.4 587.894C1128.13 595.526 1122 618.653 1122 618.653Z" fill="#DFEDC5"/>
<path d="M1106.01 647.992C1106.34 648.02 1106.67 647.948 1106.96 647.784C1107.25 647.621 1107.48 647.375 1107.62 647.077C1129.37 602.734 1150.45 587.137 1168.5 575.998C1168.87 575.769 1169.14 575.4 1169.24 574.974C1169.34 574.547 1169.27 574.097 1169.04 573.723C1168.81 573.348 1168.44 573.081 1168.02 572.978C1167.59 572.876 1167.14 572.947 1166.77 573.176C1148.32 584.553 1126.79 600.472 1104.65 645.61C1104.54 645.851 1104.48 646.117 1104.49 646.385C1104.49 646.653 1104.57 646.915 1104.7 647.148C1104.83 647.382 1105.02 647.579 1105.24 647.723C1105.47 647.868 1105.73 647.955 1106 647.976L1106.01 647.992Z" fill="#7DB020"/>
<path d="M1121.86 620.294C1121.97 620.304 1122.08 620.304 1122.19 620.294C1122.62 620.243 1123.02 620.022 1123.29 619.68C1123.56 619.338 1123.69 618.902 1123.64 618.468C1121.38 598.952 1116.45 585.935 1116.24 585.411C1116.17 585.201 1116.05 585.007 1115.91 584.841C1115.76 584.676 1115.58 584.541 1115.38 584.447C1115.18 584.352 1114.96 584.3 1114.74 584.292C1114.51 584.284 1114.29 584.32 1114.09 584.4C1113.88 584.48 1113.69 584.6 1113.53 584.755C1113.37 584.91 1113.24 585.095 1113.16 585.3C1113.07 585.504 1113.03 585.724 1113.03 585.947C1113.03 586.169 1113.07 586.388 1113.16 586.592C1113.21 586.721 1118.15 599.791 1120.36 618.867C1120.41 619.24 1120.59 619.585 1120.86 619.845C1121.13 620.104 1121.48 620.263 1121.86 620.294Z" fill="#7DB020"/>
<path d="M266.395 341.126C266.395 341.126 257.97 310.403 249.718 303.167C241.466 295.931 228.917 288.804 219.278 299.793C209.639 310.782 219.617 322.122 227.232 328.818C234.847 335.514 266.395 341.126 266.395 341.126Z" fill="#CCDE78"/>
<path d="M285.815 365.277C285.815 365.277 259.055 351.925 248.356 352.526C237.657 353.127 224.02 356.376 224.717 368.719C225.415 381.063 240.104 381.89 249.981 381.329C259.858 380.769 285.815 365.277 285.815 365.277Z" fill="#CCDE78"/>
<path d="M286.168 363.773C286.168 363.773 305.332 343.113 307.622 333.277C309.912 323.441 310.589 310.246 299.241 307.602C287.893 304.957 283.253 318.035 281.141 327.113C279.028 336.191 286.168 363.773 286.168 363.773Z" fill="#CCDE78"/>
<path d="M309.327 395.181C309.327 395.181 281.439 382.321 270.478 383.28C259.517 384.24 245.617 387.997 246.713 400.667C247.81 413.337 262.927 413.696 273.046 412.813C283.164 411.93 309.327 395.181 309.327 395.181Z" fill="#CCDE78"/>
<path d="M308.943 392.665C308.943 392.665 326.774 372.852 328.797 363.519C330.821 354.187 331.277 341.698 320.505 339.364C309.734 337.03 305.537 349.442 303.671 358.069C301.804 366.696 308.943 392.665 308.943 392.665Z" fill="#CCDE78"/>
<path d="M322.5 419.529C322.24 419.512 321.989 419.429 321.769 419.288C321.55 419.147 321.37 418.953 321.247 418.723C297.446 375.339 278.761 356.323 265.116 342.432C262.697 339.981 260.435 337.667 258.347 335.433C244.52 320.631 235.962 312.274 227.569 307.662C227.21 307.465 226.945 307.134 226.831 306.742C226.717 306.35 226.763 305.928 226.96 305.57C227.157 305.212 227.488 304.946 227.88 304.832C228.272 304.718 228.694 304.764 229.052 304.961C237.812 309.774 246.548 318.288 260.601 333.329C262.661 335.538 264.918 337.836 267.313 340.271C281.083 354.288 299.946 373.484 323.964 417.268C324.061 417.445 324.123 417.64 324.145 417.841C324.167 418.042 324.15 418.246 324.093 418.44C324.037 418.634 323.942 418.816 323.816 418.973C323.689 419.131 323.533 419.263 323.355 419.36C323.093 419.499 322.796 419.557 322.5 419.529Z" fill="#7DB020"/>
<path d="M288.549 367.683C288.166 367.658 287.807 367.49 287.542 367.213C287.276 366.937 287.124 366.571 287.114 366.188C286.461 342.698 295.035 323.053 295.402 322.247C295.484 322.062 295.602 321.895 295.748 321.755C295.895 321.615 296.068 321.506 296.257 321.433C296.446 321.36 296.648 321.325 296.85 321.329C297.053 321.334 297.252 321.379 297.438 321.461C297.623 321.543 297.79 321.661 297.93 321.808C298.07 321.954 298.179 322.127 298.252 322.316C298.325 322.505 298.36 322.707 298.355 322.909C298.351 323.112 298.306 323.312 298.224 323.497C298.135 323.69 289.565 343.331 290.198 366.099C290.207 366.508 290.055 366.904 289.774 367.2C289.493 367.497 289.106 367.671 288.698 367.683H288.549Z" fill="#7DB020"/>
<path d="M238.066 368.212C237.702 368.188 237.358 368.036 237.095 367.783C236.833 367.529 236.669 367.191 236.633 366.828C236.596 366.465 236.69 366.101 236.897 365.801C237.104 365.5 237.411 365.283 237.764 365.188C239.13 364.813 271.4 356.186 288.041 364.45C288.398 364.637 288.668 364.956 288.793 365.34C288.917 365.723 288.886 366.14 288.707 366.501C288.528 366.861 288.214 367.138 287.833 367.27C287.452 367.402 287.035 367.38 286.671 367.208C271.078 359.464 238.892 368.07 238.574 368.159C238.408 368.204 238.237 368.222 238.066 368.212Z" fill="#7DB020"/>
<path d="M264.644 398.535C264.27 398.513 263.916 398.356 263.65 398.093C263.383 397.83 263.221 397.479 263.195 397.105C263.169 396.731 263.28 396.361 263.507 396.063C263.735 395.765 264.063 395.56 264.43 395.487C265.801 395.205 298.147 388.561 310.028 394.237C310.212 394.323 310.378 394.445 310.515 394.595C310.653 394.746 310.759 394.922 310.828 395.114C310.896 395.305 310.926 395.509 310.916 395.712C310.906 395.916 310.855 396.115 310.767 396.299C310.679 396.483 310.555 396.647 310.403 396.783C310.251 396.918 310.074 397.022 309.882 397.089C309.689 397.156 309.485 397.183 309.282 397.171C309.079 397.158 308.88 397.105 308.697 397.015C297.752 391.774 265.385 398.438 265.059 398.506C264.922 398.534 264.783 398.543 264.644 398.535Z" fill="#7DB020"/>
<path d="M1053.62 234.971L1074.02 251.475L1045.49 269.789L1059.08 280.983L996.871 301.93L1025.75 278.722L1014.75 269.668L1053.62 234.971Z" fill="url(#paint2_linear_2293_3437)"/>
<path d="M1036.34 321.727C1036.01 321.748 1035.69 321.691 1035.39 321.562L1016.72 313.451C1016.22 313.233 1015.83 312.825 1015.63 312.316C1015.43 311.807 1015.44 311.239 1015.66 310.738C1015.87 310.237 1016.28 309.842 1016.79 309.642C1017.3 309.442 1017.87 309.452 1018.37 309.67L1037.03 317.777C1037.46 317.962 1037.81 318.285 1038.02 318.693C1038.24 319.101 1038.32 319.57 1038.24 320.026C1038.16 320.482 1037.93 320.897 1037.58 321.206C1037.24 321.514 1036.8 321.698 1036.34 321.727Z" fill="white"/>
<path d="M1060.05 307.348C1059.94 307.356 1059.82 307.356 1059.71 307.348L1029.12 304.155C1028.6 304.079 1028.12 303.803 1027.79 303.385C1027.47 302.967 1027.31 302.439 1027.37 301.911C1027.42 301.382 1027.67 300.894 1028.07 300.548C1028.48 300.202 1029 300.024 1029.53 300.051L1060.11 303.244C1060.63 303.299 1061.1 303.545 1061.44 303.932C1061.79 304.32 1061.97 304.822 1061.96 305.339C1061.95 305.855 1061.74 306.349 1061.39 306.723C1061.03 307.096 1060.55 307.322 1060.03 307.356L1060.05 307.348Z" fill="white"/>
<path d="M1002.86 278.149C1002.54 278.172 1002.22 278.119 1001.93 277.996C1001.63 277.873 1001.37 277.682 1001.16 277.44C1000.96 277.198 1000.81 276.91 1000.73 276.6C1000.65 276.29 1000.65 275.966 1000.72 275.654L1008.38 240.393C1008.43 240.119 1008.53 239.859 1008.68 239.626C1008.83 239.394 1009.03 239.194 1009.26 239.04C1009.49 238.885 1009.75 238.779 1010.02 238.727C1010.3 238.675 1010.58 238.678 1010.85 238.737C1011.12 238.796 1011.37 238.909 1011.6 239.069C1011.83 239.23 1012.02 239.434 1012.17 239.67C1012.31 239.907 1012.41 240.17 1012.45 240.444C1012.49 240.719 1012.48 240.999 1012.41 241.268L1004.75 276.529C1004.65 276.968 1004.42 277.363 1004.08 277.656C1003.74 277.949 1003.31 278.122 1002.86 278.149Z" fill="white"/>
<path d="M1083.29 388.63L1068.24 404.295C1069.62 410.992 1070.08 417.843 1069.63 424.665L1086.56 437.968C1084.21 445.007 1081.91 451.864 1079.52 458.983L1058.02 459.406C1054.28 465.124 1049.78 470.309 1044.64 474.822C1045.5 481.957 1046.36 489.129 1047.23 496.381L1027.57 506.181L1011.92 491.165C1005.23 492.53 998.378 492.988 991.559 492.527L978.365 509.342L957.237 502.295C957.104 495.466 956.963 488.238 956.834 480.929C951.12 477.19 945.94 472.693 941.435 467.562L919.831 470.142L910.023 450.473L925.035 434.848C924.471 431.393 923.544 417.864 923.649 414.414L906.762 401.171C909.116 394.132 911.414 387.275 913.8 380.14L935.259 379.737C939.025 374.029 943.534 368.848 948.667 364.329C947.808 357.186 946.945 350.014 946.074 342.762L965.759 332.946L981.352 347.918C984.738 347.43 998.255 346.435 1001.8 346.552L1014.96 329.774L1036.08 336.736C1036.22 343.673 1036.36 350.901 1036.49 358.198C1042.2 361.936 1047.38 366.431 1051.89 371.562L1073.49 368.977L1083.29 388.63ZM1029.45 403.38C1020.69 385.24 998.452 377.903 980.554 386.663C962.413 395.531 954.927 417.756 963.804 435.747C972.681 453.739 994.804 461.229 1012.74 452.444C1030.91 443.543 1038.45 421.247 1029.45 403.38Z" fill="white"/>
<path d="M976.846 304.34L947.684 304.014C942.398 311.515 936.125 318.271 929.035 324.098L931.603 352.873L904.594 365.301C898.144 358.698 891.355 351.756 884.413 344.653C875.378 346.244 866.17 346.607 857.037 345.733L838.332 368.083L810.634 357.843C810.738 348.281 810.843 338.602 810.952 328.742C803.462 323.446 796.719 317.167 790.905 310.073L762.327 312.621C758.143 303.542 754.043 294.657 749.806 285.47L770.317 265.435C768.727 256.409 768.366 247.209 769.245 238.087L746.863 219.325C750.29 210.053 753.656 200.951 757.091 191.651L786.176 191.977C789.038 188.248 801.418 174.909 804.893 171.821C804.026 162.146 803.164 152.471 802.329 143.131L829.371 130.686L849.507 151.29C858.551 149.73 867.763 149.379 876.899 150.246L895.616 127.889L923.311 138.128C923.206 147.69 923.1 157.365 922.993 167.153C926.584 170.023 939.976 182.331 943.125 185.91L971.634 183.367L984.231 210.424L963.612 230.548C965.206 239.575 965.57 248.776 964.692 257.9L987.073 276.658L976.846 304.34ZM912.935 265.237C922.61 240.002 909.367 211.497 884.349 202.035C859.025 192.461 830.383 205.543 820.938 230.758C811.492 255.973 824.505 284.507 849.559 293.976C874.988 303.566 903.731 290.457 912.935 265.217V265.237Z" fill="url(#paint3_linear_2293_3437)"/>
<path d="M929.66 260.775H346.922C327.502 260.775 311.758 276.518 311.758 295.939V660.151C311.758 679.572 327.502 695.315 346.922 695.315H929.66C949.081 695.315 964.824 679.572 964.824 660.151V295.939C964.824 276.518 949.081 260.775 929.66 260.775Z" fill="#777C90"/>
<path d="M937.193 286.18H339.387V643.094H937.193V286.18Z" fill="white"/>
<path d="M647.722 678.364H628.876C626.965 678.358 625.134 677.597 623.782 676.246C622.431 674.894 621.669 673.063 621.664 671.152C621.669 669.241 622.431 667.41 623.782 666.06C625.134 664.709 626.965 663.948 628.876 663.944H647.734C649.645 663.948 651.476 664.709 652.828 666.06C654.179 667.41 654.941 669.241 654.946 671.152C654.941 673.065 654.178 674.898 652.824 676.25C651.47 677.602 649.635 678.362 647.722 678.364Z" fill="#9EA1AD"/>
<path d="M937.193 286.18H339.387V305.989H937.193V286.18Z" fill="#C5C5D1"/>
<path d="M927.147 295.939C927.147 296.933 926.853 297.904 926.301 298.73C925.749 299.556 924.965 300.2 924.047 300.58C923.129 300.96 922.119 301.06 921.145 300.866C920.17 300.672 919.275 300.194 918.573 299.491C917.87 298.789 917.392 297.894 917.198 296.919C917.004 295.945 917.104 294.935 917.484 294.017C917.864 293.099 918.508 292.315 919.334 291.763C920.16 291.211 921.131 290.916 922.124 290.916C923.457 290.916 924.734 291.446 925.676 292.388C926.618 293.33 927.147 294.607 927.147 295.939Z" fill="#050D36"/>
<path d="M909.566 295.939C909.566 296.934 909.272 297.906 908.72 298.734C908.168 299.561 907.383 300.206 906.464 300.587C905.546 300.968 904.534 301.068 903.559 300.874C902.583 300.68 901.687 300.201 900.984 299.498C900.281 298.795 899.802 297.899 899.608 296.923C899.414 295.948 899.514 294.936 899.895 294.018C900.276 293.099 900.921 292.314 901.748 291.762C902.576 291.21 903.548 290.916 904.543 290.916C905.875 290.916 907.153 291.446 908.095 292.388C909.037 293.33 909.566 294.607 909.566 295.939Z" fill="#9EA1AD"/>
<path d="M891.983 295.939C891.983 296.933 891.689 297.904 891.137 298.73C890.585 299.556 889.8 300.2 888.883 300.58C887.965 300.96 886.955 301.06 885.98 300.866C885.006 300.672 884.111 300.194 883.409 299.491C882.706 298.789 882.228 297.894 882.034 296.919C881.84 295.945 881.94 294.935 882.32 294.017C882.7 293.099 883.344 292.315 884.17 291.763C884.996 291.211 885.967 290.916 886.96 290.916C888.293 290.916 889.57 291.446 890.512 292.388C891.454 293.33 891.983 294.607 891.983 295.939Z" fill="#9EA1AD"/>
<path opacity="0.05" d="M1110 154.083C1110 140.921 1120.1 131.508 1132.57 131.508C1136.18 131.505 1139.74 132.37 1142.94 134.032C1145.39 130.377 1148.84 127.514 1152.89 125.796C1156.94 124.077 1161.4 123.578 1165.72 124.359C1170.05 125.14 1174.05 127.167 1177.24 130.191C1180.43 133.216 1182.67 137.106 1183.68 141.385C1186.76 139.235 1190.41 138.084 1194.16 138.087C1204.29 138.087 1212.5 144.67 1212.5 157.84C1212.5 171.01 1205.4 175.666 1196.73 175.666C1196.73 175.666 1128.08 176.299 1126 175.666C1117.88 175.3 1110 167.245 1110 154.083Z" fill="white"/>
<path opacity="0.05" d="M716 36.4558C716 20.5041 728.243 9.11183 743.348 9.11183C747.721 9.1076 752.032 10.1571 755.913 12.1716C758.871 7.738 763.059 4.26521 767.964 2.18006C772.869 0.0949069 778.276 -0.511738 783.521 0.434693C788.765 1.38113 793.619 3.83938 797.486 7.50731C801.352 11.1752 804.063 15.893 805.284 21.0806C809.003 18.4761 813.434 17.0811 817.974 17.0856C830.242 17.0856 840.191 25.0635 840.191 41.0111C840.191 56.9587 831.584 62.6146 821.103 62.6146C821.103 62.6146 737.914 63.3846 735.39 62.6146C725.562 62.1671 716 52.4075 716 36.4558Z" fill="white"/>
<path opacity="0.05" d="M277 84.2133C277 70.1039 287.816 60.058 301.159 60.058C305.024 60.0541 308.832 60.9819 312.261 62.763C314.872 58.8435 318.572 55.7728 322.906 53.9287C327.24 52.0846 332.018 51.5476 336.653 52.3838C341.288 53.2199 345.577 55.3927 348.993 58.6349C352.409 61.8771 354.803 66.0471 355.879 70.632C359.165 68.3312 363.079 67.0982 367.09 67.1006C377.93 67.1006 386.719 74.1472 386.719 88.2405C386.719 102.334 379.124 107.324 369.84 107.324C369.84 107.324 296.35 108.002 294.121 107.324C285.445 106.929 277 98.3025 277 84.2133Z" fill="white"/>
<path opacity="0.05" d="M114.984 191.887C114.984 179.688 105.624 170.973 94.0702 170.973C90.7251 170.97 87.4286 171.774 84.4597 173.315C82.1991 169.923 78.9962 167.265 75.2449 165.669C71.4937 164.073 67.3577 163.608 63.3458 164.332C59.334 165.056 55.6212 166.937 52.6643 169.743C49.7074 172.55 47.6353 176.159 46.703 180.128C43.8572 178.138 40.4683 177.071 36.9957 177.072C27.611 177.072 20 183.176 20 195.374C20 207.573 26.579 211.902 34.6133 211.902C34.6133 211.902 98.2385 212.487 100.169 211.902C107.676 211.552 114.984 204.086 114.984 191.887Z" fill="white"/>
<path d="M1077.87 573.64C1077.87 570.818 1080.11 568.557 1083.21 568.557C1086.25 568.557 1088.43 570.802 1088.43 573.64C1088.43 574.324 1088.3 575.002 1088.04 575.635C1087.78 576.268 1087.4 576.841 1086.91 577.322C1086.43 577.802 1085.85 578.18 1085.21 578.432C1084.58 578.684 1083.9 578.805 1083.21 578.788C1080.11 578.788 1077.87 576.478 1077.87 573.64ZM1078.33 532.924H1088.09L1086.45 563.816H1079.91L1078.33 532.924Z" fill="url(#paint4_linear_2293_3437)"/>
<path d="M423.461 628.336C423.461 625.514 425.702 623.253 428.806 623.253C431.842 623.253 434.019 625.498 434.019 628.336C434.027 629.02 433.898 629.698 433.638 630.331C433.378 630.964 432.993 631.537 432.507 632.018C432.02 632.498 431.442 632.876 430.806 633.128C430.17 633.38 429.49 633.501 428.806 633.484C425.698 633.484 423.461 631.174 423.461 628.336ZM423.921 587.62H433.688L432.039 618.512H425.505L423.921 587.62Z" fill="url(#paint5_linear_2293_3437)"/>
<path d="M519.008 53.0727C519.008 50.2508 521.253 47.9893 524.353 47.9893C527.393 47.9893 529.57 50.2347 529.57 53.0727C529.578 53.7568 529.448 54.4357 529.188 55.0685C528.928 55.7014 528.543 56.2753 528.056 56.7559C527.569 57.2365 526.99 57.6139 526.354 57.8656C525.718 58.1172 525.037 58.238 524.353 58.2206C521.241 58.2206 519.008 55.9107 519.008 53.0727ZM519.471 12.3571H529.239L527.59 43.2445H521.056L519.471 12.3571Z" fill="url(#paint6_linear_2293_3437)"/>
<path d="M564.855 670.132C539.502 675.22 522.353 691.526 502.491 710.416C470.588 740.752 430.904 778.5 340.213 778.545H340.088C250.381 778.545 202.244 750.217 159.758 725.215C132.894 709.405 107.521 694.473 73.9452 687.132C46.4198 681.101 0 678.626 0 678.626V667.939C0 667.939 47.7139 670.551 76.1906 676.78C111.404 684.491 137.498 699.846 165.104 716.096C208.452 741.59 253.263 767.966 340.08 767.966H340.185C426.672 767.93 463.082 733.298 495.195 702.749C515.351 683.576 534.423 665.44 562.771 659.772C563.458 659.615 564.17 659.598 564.864 659.721C565.558 659.844 566.22 660.105 566.812 660.488C567.404 660.871 567.913 661.369 568.309 661.952C568.706 662.535 568.981 663.192 569.12 663.883C569.258 664.574 569.257 665.286 569.116 665.977C568.975 666.667 568.698 667.323 568.299 667.905C567.901 668.486 567.391 668.982 566.797 669.363C566.205 669.745 565.541 670.003 564.847 670.124L564.855 670.132Z" fill="url(#paint7_linear_2293_3437)"/>
<path d="M615.17 722.361C586.701 725.989 560.434 705.688 556.793 677.211L554.443 658.836C550.815 630.368 571.116 604.1 599.593 600.46C628.058 596.832 654.329 617.133 657.97 645.61L660.32 663.984C663.948 692.469 643.635 718.733 615.17 722.361Z" fill="url(#paint8_linear_2293_3437)"/>
<path d="M669.726 722.938C683.085 721.184 689.7 687.662 684.5 648.064C679.3 608.467 664.255 577.789 650.896 579.544C637.537 581.298 630.922 614.82 636.122 654.417C641.321 694.014 656.366 724.692 669.726 722.938Z" fill="url(#paint9_linear_2293_3437)"/>
<path d="M630.287 731.47C643.672 729.757 650.409 696.207 645.333 656.533C640.258 616.859 625.293 586.086 611.908 587.798C598.523 589.51 591.786 623.06 596.862 662.734C601.937 702.408 616.902 733.182 630.287 731.47Z" fill="url(#paint10_linear_2293_3437)"/>
<path d="M649.993 582.925L611.91 587.797L630.29 731.473L668.373 726.601L649.993 582.925Z" fill="url(#paint11_linear_2293_3437)"/>
<path d="M677.222 652.499C681.907 689.127 677.005 719.934 666.274 721.305C655.542 722.675 643.045 694.098 638.361 657.47C633.677 620.842 638.583 590.035 649.314 588.664C660.045 587.294 672.538 615.871 677.222 652.499Z" fill="url(#paint12_linear_2293_3437)"/>
<path d="M658.744 629.755C659.461 635.35 658.2 640.123 655.922 640.414C653.644 640.704 651.23 636.382 650.516 630.807C649.803 625.232 651.06 620.439 653.338 620.149C655.616 619.858 658.03 624.16 658.744 629.755Z" fill="white"/>
<path d="M665.064 679.162C665.778 684.757 664.516 689.53 662.242 689.821C659.969 690.111 657.55 685.789 656.836 680.214C656.123 674.639 657.381 669.846 659.658 669.556C661.936 669.265 664.351 673.583 665.064 679.162Z" fill="white"/>
<path d="M785.315 651.689C785.166 651.689 785.012 651.689 784.859 651.689L735.493 647.468C734.801 647.409 734.129 647.215 733.513 646.896C732.897 646.577 732.35 646.14 731.903 645.609C731.456 645.079 731.118 644.465 730.908 643.804C730.698 643.143 730.62 642.447 730.679 641.756C730.738 641.065 730.933 640.392 731.252 639.776C731.571 639.16 732.008 638.613 732.539 638.166C733.069 637.719 733.682 637.381 734.343 637.171C735.004 636.961 735.7 636.884 736.392 636.943L785.762 641.163C787.126 641.27 788.396 641.902 789.303 642.925C790.211 643.949 790.686 645.285 790.628 646.652C790.57 648.019 789.983 649.31 788.992 650.254C788.001 651.197 786.683 651.719 785.315 651.709V651.689Z" fill="url(#paint13_linear_2293_3437)"/>
<path d="M781.074 701.318C780.925 701.318 780.772 701.318 780.619 701.318L731.268 697.081C729.892 696.936 728.627 696.258 727.746 695.191C726.864 694.124 726.437 692.754 726.554 691.375C726.672 689.996 727.326 688.719 728.375 687.817C729.425 686.915 730.786 686.46 732.167 686.551L781.534 690.772C782.897 690.879 784.166 691.51 785.074 692.533C785.981 693.557 786.456 694.892 786.399 696.259C786.341 697.625 785.756 698.916 784.766 699.86C783.776 700.804 782.458 701.326 781.09 701.318H781.074Z" fill="url(#paint14_linear_2293_3437)"/>
<path d="M813.827 673.912C817.237 634.061 809.101 600.822 795.656 599.672C782.211 598.521 768.548 629.895 765.138 669.747C761.729 709.598 769.864 742.837 783.309 743.987C796.754 745.138 810.418 713.764 813.827 673.912Z" fill="url(#paint15_linear_2293_3437)"/>
<path d="M858.982 678.044C862.582 638.047 854.561 604.638 841.067 603.423C827.573 602.209 813.715 633.649 810.116 673.646C806.516 713.643 814.537 747.052 828.031 748.266C841.525 749.481 855.383 718.041 858.982 678.044Z" fill="url(#paint16_linear_2293_3437)"/>
<path d="M783.183 743.98L821.438 747.246L833.759 602.925L795.505 599.659L783.183 743.98Z" fill="url(#paint17_linear_2293_3437)"/>
<path d="M900.436 680.637C897.811 711.364 872.705 735.019 842.765 736.748C839.844 736.923 836.915 736.884 834.001 736.631L824.765 735.825C821.927 735.581 819.109 735.142 816.332 734.511C810.716 721.087 808.197 698.347 810.369 672.926C812.542 647.505 818.883 625.522 826.696 613.263C829.54 613.113 832.392 613.157 835.23 613.396L844.466 614.202C847.38 614.447 850.273 614.905 853.121 615.573C867.491 618.962 880.17 627.393 888.852 639.336C897.534 651.278 901.644 665.938 900.436 680.654V680.637Z" fill="url(#paint18_linear_2293_3437)"/>
<path d="M1290 703.87C1275.34 705.28 1260.8 707.674 1246.46 711.033C1208.31 719.926 1180.56 735.221 1153.71 750.031C1124.41 766.197 1096.75 781.443 1058.02 787.869C1050.24 789.184 1042.36 789.858 1034.46 789.884C968.823 789.884 937.573 740.147 926.587 716.919C913.433 689.135 883.909 686.108 883.606 686.092C882.237 685.929 880.986 685.238 880.119 684.166C879.251 683.095 878.837 681.727 878.964 680.354C879.09 678.981 879.748 677.712 880.797 676.817C881.845 675.922 883.202 675.472 884.578 675.562C886.037 675.703 920.424 679.222 936.129 712.396C947.344 736.095 981.517 789.884 1056.26 777.468C1093.22 771.345 1120.12 756.506 1148.58 740.812C1176.05 725.654 1204.46 709.985 1244.04 700.757C1259.17 697.212 1274.53 694.704 1290 693.251V703.87Z" fill="url(#paint19_linear_2293_3437)"/>
<path d="M568.877 499.433H550.829V522.705H525.815V499.433H466.152V482.175L518.397 411.886H545.31L496.846 478.551H526.609V457.814H550.829V478.551H568.877V499.433Z" fill="url(#paint20_linear_2293_3437)"/>
<path d="M588.965 467.312C588.965 430.74 609.23 410.004 636.457 410.004C663.845 410.004 683.953 430.74 683.953 467.312C683.953 503.883 663.845 524.62 636.457 524.62C609.242 524.62 588.965 503.867 588.965 467.312ZM658.145 467.312C658.145 442.141 649.276 431.692 636.457 431.692C623.795 431.692 614.93 442.141 614.93 467.312C614.93 492.483 623.799 502.932 636.457 502.932C649.297 502.932 658.157 492.483 658.157 467.312H658.145Z" fill="url(#paint21_linear_2293_3437)"/>
<path d="M810.451 499.433H792.403V522.705H767.389V499.433H707.727V482.175L759.968 411.886H786.88L738.416 478.551H768.179V457.814H792.403V478.551H810.451V499.433Z" fill="url(#paint22_linear_2293_3437)"/>
<path d="M542.226 118.927C542.226 118.927 547.523 110.953 551.413 113.453C555.304 115.952 551.659 122.813 548.745 125.631C545.83 128.449 541.609 127.578 541.609 127.578L542.226 118.927Z" fill="#59331D"/>
<path d="M547.197 120.395C547.197 120.395 549.955 112.171 549.124 104.503C548.294 96.8359 544.218 89.8014 544.218 89.8014L535.547 94.2358L547.197 120.395Z" fill="#121729"/>
<path d="M477.323 175.937C476.545 165.246 489.449 156.208 498.946 156.208H542.693C553.513 156.208 568.332 165.246 567.554 175.937L557.589 234.39H487.284L477.323 175.937Z" fill="url(#paint23_linear_2293_3437)"/>
<path d="M480.453 166.113C480.453 166.113 453.258 211.231 463.522 224.26C473.785 237.289 492.547 237.373 492.547 237.373L504.503 218.092L490.837 200.177L501.085 183.895L480.453 166.113Z" fill="url(#paint24_linear_2293_3437)"/>
<path d="M563.304 165.448C565.997 168.032 593.329 209.687 581.372 222.716C569.416 235.745 552.347 238.913 552.347 238.913L540.387 218.092L554.053 200.177L543.805 183.895C543.805 183.895 560.611 162.868 563.304 165.448Z" fill="url(#paint25_linear_2293_3437)"/>
<path d="M528.417 231.121L562.582 234.378C562.582 234.378 603.58 209.949 612.118 229.492C620.656 249.036 572.83 271.82 560.873 275.09C548.916 278.359 495.97 281.604 478.881 275.09C461.793 268.575 424.222 250.66 434.469 231.121C444.716 211.581 487.424 234.378 487.424 234.378L528.417 231.121Z" fill="#121729"/>
<path d="M560.596 191.603H484.277C481.296 191.603 478.879 194.019 478.879 197V237.119C478.879 240.101 481.296 242.517 484.277 242.517H560.596C563.578 242.517 565.994 240.101 565.994 237.119V197C565.994 194.019 563.578 191.603 560.596 191.603Z" fill="#CACCE8"/>
<path d="M565.63 241.485H479.249C478.162 241.485 477.281 242.366 477.281 243.452V246.032C477.281 247.119 478.162 248 479.249 248H565.63C566.717 248 567.597 247.119 567.597 246.032V243.452C567.597 242.366 566.717 241.485 565.63 241.485Z" fill="#9DA1CC"/>
<path d="M527.306 218.455C527.306 221.019 525.125 223.099 522.436 223.099C519.747 223.099 517.566 221.019 517.566 218.455C517.566 215.891 519.747 213.811 522.436 213.811C525.125 213.811 527.306 215.907 527.306 218.455Z" fill="url(#paint26_linear_2293_3437)"/>
<path d="M571.448 232.588L507.754 260.626L510.1 275.489C510.1 275.489 538.407 275.086 558.511 269.204C578.615 263.323 595.893 255.595 604.907 246.448C613.921 237.301 586.424 225.997 571.448 232.588Z" fill="url(#paint27_linear_2293_3437)"/>
<path d="M540.189 265.003C540.189 265.003 553.552 260.67 565.731 262.964C577.909 265.257 581.702 269.853 580.388 274.86C579.074 279.867 567.416 284.063 558.773 283.124C550.13 282.185 534.105 277.714 534.105 277.714L540.189 265.003Z" fill="#121729"/>
<path d="M505.809 263.847C505.809 263.847 492.418 259.61 480.255 261.992C468.093 264.375 464.332 269.003 465.682 273.997C467.033 278.992 478.723 283.108 487.358 282.1C495.993 281.092 510.103 275.489 510.103 275.489L505.809 263.847Z" fill="#121729"/>
<path d="M507.493 264.242C507.493 264.242 489.941 263.814 493.033 272.203C496.125 280.592 511.48 274.86 511.48 274.86L507.493 264.242Z" fill="#59331D"/>
<path d="M538.502 265.411C538.502 265.411 556.643 264.806 553.616 273.219C550.588 281.632 534.266 276.912 534.266 276.912L538.502 265.411Z" fill="#59331D"/>
<path d="M476.385 237.43C491.829 243.452 540.28 264.995 540.28 264.995L538.317 278.053C538.317 278.053 511.529 278.282 487.16 272.53C462.792 266.777 449.198 259.227 440.12 250.128C431.041 241.03 460.941 231.407 476.385 237.43Z" fill="url(#paint28_linear_2293_3437)"/>
<path d="M512.719 140.502V153.33L503.262 155.894C503.262 155.894 506.725 164.553 521.35 164.553C535.975 164.553 540.781 156.216 540.781 156.216L531.48 152.528L531.319 138.418L512.719 140.502Z" fill="#59331D"/>
<path d="M502.216 118.661C502.652 134.923 513.504 147.823 526.497 147.476C539.489 147.13 547.862 130.336 547.423 114.069C546.983 97.8034 537.901 88.2413 524.924 88.588C511.948 88.9347 501.785 102.399 502.216 118.661Z" fill="#734226"/>
<path d="M505.072 116.166C505.072 116.166 500.585 107.7 496.465 109.812C492.345 111.925 495.304 119.084 497.928 122.196C500.553 125.309 504.838 124.833 504.838 124.833L505.072 116.166Z" fill="#734226"/>
<path d="M506.432 122.209C506.432 122.209 506.718 111.485 508.359 106.954C509.999 102.423 514.567 95.9611 514.567 95.9611C514.567 95.9611 526.733 98.4242 532.389 98.0775C538.045 97.7308 544.62 95.9006 546.902 92.6716C549.183 89.4425 552.545 78.9976 552.545 78.9976L540.528 79.4934L542.858 74.2044L530.168 76.7159L529.362 73.2732L523.774 75.2445L522.109 71.5922C522.109 71.5922 500.026 82.146 498.083 93.2077C496.14 104.269 496.438 109.812 496.438 109.812C496.438 109.812 498.958 109.591 502.542 112.501C506.125 115.412 503.122 125.966 503.122 125.966C503.122 125.966 505.102 138.761 511.531 143.772C517.961 148.783 526.733 150.419 533.941 149.149C541.149 147.88 545.708 127.743 545.708 127.743L540.065 134.105C540.065 134.105 537.174 141.857 534.284 143.131C531.393 144.405 528.342 141.115 528.342 141.115C528.342 141.115 523.851 143.014 521.368 142.546C519.465 142.191 513.462 140.035 509.754 131.988C508.597 125.929 506.682 125.631 506.432 122.209Z" fill="#121729"/>
<path d="M1134.16 676.711L1155.53 692.768C1155.53 692.768 1152.96 702.705 1142.16 700.092C1131.36 697.48 1131.18 692.03 1131.18 692.03L1116.22 679.13L1134.16 676.711Z" fill="#613820"/>
<path d="M1131.17 692.022C1131.17 692.022 1127.07 695.686 1126.67 700.669C1126.26 705.651 1126.7 708.296 1130.47 708.901C1134.24 709.505 1141.67 707.623 1144.73 708.453C1147.8 709.284 1153.2 709.739 1161.21 709.662C1169.22 709.586 1181.27 706.97 1180.78 703.696C1180.28 700.423 1155.52 692.763 1155.52 692.763C1155.52 692.763 1147.55 696.597 1141.16 695.63C1134.76 694.662 1131.17 692.022 1131.17 692.022Z" fill="#121729"/>
<path d="M1072.96 687.785C1072.96 687.785 1094.03 682.141 1102.46 687.785C1110.89 693.429 1104.57 700.975 1098.25 704.744C1091.93 708.514 1065.59 703.801 1065.59 703.801L1072.96 687.785Z" fill="#121729"/>
<path d="M1142.34 680.174L1125.72 689.962L1086.35 665.552L1051.78 684.262C1051.78 684.262 1010.59 678.017 999.184 672.571C987.776 667.125 1009.74 660.28 1028.77 649.395C1047.81 638.511 1077.08 631.658 1094.19 635.262C1111.31 638.866 1142.34 680.174 1142.34 680.174Z" fill="#121729"/>
<path d="M1009.39 669.39C1017.14 670.942 1017.12 672.716 1039.42 674.57C1061.71 676.425 1080.29 678.287 1080.29 691.292C1080.29 704.297 1072.76 705.341 1057.9 707.199C1043.04 709.058 1003.51 711.634 983.069 706.046C962.63 700.459 957.672 691.292 957.672 678.287C957.672 674.611 957.97 665.355 961.421 664.529C970.157 662.432 1001.64 667.834 1009.39 669.39Z" fill="url(#paint29_linear_2293_3437)"/>
<path d="M984.975 577.679C972.192 579.292 995.227 635.383 1003.43 646.086C1011.63 656.789 1059.96 661.836 1059.96 661.836L1057.18 649.778L1020.8 632.787C1020.8 632.787 1005.84 599.432 1001.89 588.487C997.944 577.542 993.787 576.559 984.975 577.679Z" fill="url(#paint30_linear_2293_3437)"/>
<path d="M1033.64 653.83L1045.28 654.938C1045.28 654.938 1056.64 649.532 1065.37 650.782C1074.09 652.032 1085.32 665.537 1085.32 665.537L1045.82 665.307H1035.42L1033.64 653.83Z" fill="#613820"/>
<path d="M982.536 567.581C989.602 569.637 993.823 576.688 998.975 582.263C1007.53 591.535 1014.75 600.895 1013.53 606.567C1011.57 615.642 1005.22 619.58 1005.22 619.58C1005.22 619.58 1012.78 653.725 1010.98 662.715C1008.59 674.651 961.944 672.599 957.659 670.277C953.374 667.955 949.83 654.152 948.838 635.278C947.847 616.404 948.33 600.609 951.886 588.705C955.442 576.801 967.499 563.207 982.536 567.581Z" fill="url(#paint31_linear_2293_3437)"/>
<path d="M963.216 579.566C950.437 581.179 965.53 641.51 973.737 652.213C981.945 662.916 1039.3 665.553 1039.3 665.553L1038.5 652.814L987.19 635.028C987.19 635.028 986.025 607.978 982.07 597.037C978.115 586.097 972.032 578.445 963.216 579.566Z" fill="url(#paint32_linear_2293_3437)"/>
<path d="M991.348 556.136L988.232 569.036L992.965 573.62C992.965 573.62 995.472 580.509 981.721 579.046C967.971 577.583 967.148 569.182 967.148 569.182L971.305 566.678L974.066 552.307L991.348 556.136Z" fill="#422616"/>
<path d="M1015.77 671.257H1118.5L1119.52 665.323H1016.14L1015.77 671.257Z" fill="#9DA1CC"/>
<path d="M1062.21 665.552H1119.52L1128.27 621.334C1128.47 620.31 1128.45 619.254 1128.2 618.241C1127.95 617.227 1127.48 616.281 1126.82 615.47C1126.17 614.659 1125.34 614.001 1124.4 613.546C1123.46 613.09 1122.43 612.846 1121.39 612.832L1077.24 612.227C1075.54 612.204 1073.89 612.79 1072.59 613.879C1071.28 614.968 1070.41 616.489 1070.13 618.165L1062.21 665.552Z" fill="#CACCE8"/>
<path d="M1102.51 643.01C1102.04 645.517 1099.84 647.21 1097.59 646.795C1095.34 646.38 1093.89 644.01 1094.37 641.502C1094.84 638.995 1097.03 637.306 1099.28 637.721C1101.54 638.136 1102.97 640.527 1102.51 643.01Z" fill="url(#paint33_linear_2293_3437)"/>
<path d="M973.636 557.684C973.636 557.684 959.208 543.712 961.76 530.961C964.311 518.21 974.66 503.984 989.797 506.371C1004.93 508.757 1012.52 519.456 1012.52 519.456L973.636 557.684Z" fill="#121729"/>
<path d="M1013.93 525.176C1013.93 525.176 1014.65 546.663 1010.2 555.637C1005.74 564.61 998.422 572.374 991.218 571.25C984.015 570.125 977.109 560.506 974.384 555.241C971.659 549.977 978.657 519.666 978.657 519.666L1013.93 525.176Z" fill="#613820"/>
<path d="M977.225 541.809C977.225 541.809 974.21 533.09 969.969 534.48C965.728 535.871 967.486 543.156 969.526 546.494C971.566 549.832 975.714 550.025 975.714 550.025L977.225 541.809Z" fill="#613820"/>
<path d="M1005.45 526.41C1005.45 526.41 995.073 536.488 987.535 538.645C979.996 540.801 975.614 539.54 975.614 539.54L971.297 524.983L981.065 510.986C981.065 510.986 999.834 506.064 1006.53 510.103C1013.22 514.143 1017.46 520.036 1018.89 527.176C1020.32 534.315 1012.8 546.215 1012.8 546.215C1011.32 546.006 1004.13 533.735 1005.45 526.41Z" fill="#121729"/>
<path d="M970.894 517.065C970.894 517.065 967.137 506.104 955.237 503.871C943.336 501.638 933.714 513.002 933.565 524.729C933.415 536.456 941.482 548.283 942.099 556.886C942.715 565.489 937.495 568.416 937.495 568.416C937.495 568.416 953.177 568.416 954.644 555.794C956.111 543.172 956.901 533.948 958.744 532.324C960.586 530.699 967.346 529.32 967.346 529.32L970.894 517.065Z" fill="#121729"/>
<path d="M234.92 705.381C224.991 705.164 213.692 704.502 199.139 703.442C184.586 702.382 171.283 704.027 164.926 689.905C158.569 675.784 199.647 598.077 211.749 602.508C223.851 606.938 191.524 675.215 196.789 674.667C201.493 674.179 205.041 673.893 216.619 673.397C228.196 672.901 251.477 674.796 251.477 674.796C263.974 678.731 270.895 689.418 269.214 701.922C267.65 713.524 244.849 705.599 234.92 705.381Z" fill="#121729"/>
<path d="M204.74 605.455C205.949 600.742 208.513 593.7 208.513 593.7L221.098 599.464C221.098 599.464 215.564 606.958 213.878 609.026C212.193 611.094 203.534 610.163 204.74 605.455Z" fill="#E3A36B"/>
<path d="M195.516 572.592L223.062 598.876C223.062 598.876 223.158 603.016 216.491 605.765C216.555 597.896 205.868 600.367 205.868 600.367C205.868 600.367 192.771 588.193 190.509 579.961C188.248 571.729 193.928 571.076 195.516 572.592Z" fill="#121729"/>
<path d="M380.751 605.201C376.022 590.765 359.232 585.734 345.481 588.854C331.731 591.974 323.809 596.723 313.634 605.656C303.46 614.589 308.394 619.54 278.256 629.324C248.119 639.107 246.236 660.501 248.598 667.161C250.961 673.821 260.289 675.195 260.289 675.195L327.208 668.874C327.208 668.874 349.174 666.02 363.247 656.192C377.32 646.364 374.333 625.74 374.333 625.74C374.333 625.74 385.479 619.636 380.751 605.201Z" fill="#121729"/>
<path d="M387.27 701.148C387.27 701.148 394.602 697.637 400.206 699.161C405.809 700.685 411.542 707.195 411.542 707.195L387.435 707.8L387.27 701.148Z" fill="#E3A36B"/>
<path d="M226.017 713.774C202.813 715.79 157.312 712.343 153.208 695.98C149.105 679.618 140.159 608.877 153.704 609.014C167.249 609.151 172.607 681.472 178.234 680.843C192.433 679.255 221.913 674.518 235.325 678.61C237.671 679.323 239.385 671.793 255.481 669.37C278.681 665.875 278.056 699.371 270.937 705.373C263.818 711.376 249.221 711.767 226.017 713.774Z" fill="url(#paint34_linear_2293_3437)"/>
<path d="M147.722 616.129C146.511 612.166 145.803 608.066 145.613 603.927L155.288 601.472C155.288 601.472 157.647 608.539 158.916 613.291C160.186 618.044 149.741 622.789 147.722 616.129Z" fill="#E3A36B"/>
<path d="M333.485 652.358C338.068 652.241 344.877 658.466 348.126 666.032C351.375 673.599 355.919 689.708 355.919 689.708L390.124 699.758L388.084 707.28C388.084 707.28 356.68 708.122 347.368 702.241C341.241 698.375 332.977 676.582 331.219 667.451C329.461 658.32 328.901 652.471 333.485 652.358Z" fill="url(#paint35_linear_2293_3437)"/>
<path d="M128.193 582.928L163.584 603.125C163.584 603.125 164.753 607.402 158.532 611.993C156.569 603.806 146.108 609.127 146.108 609.127C146.108 609.127 129.366 599.855 124.892 591.889C120.417 583.924 126.153 581.759 128.193 582.928Z" fill="#121729"/>
<path d="M326.648 646.682C326.648 646.682 337.911 648.379 342.568 659.909C347.224 671.438 344.789 690.421 333.332 697.984C321.875 705.547 317.477 704.22 317.477 704.22C317.477 704.22 282.712 710.916 259.403 710.045C236.094 709.175 255.871 678.267 268.78 670.668C281.688 663.069 303.356 643.659 326.648 646.682Z" fill="url(#paint36_linear_2293_3437)"/>
<path d="M325.749 646.896C327.511 645.046 333.57 629.316 333.57 629.316C333.57 629.316 329.063 622.567 333.461 617.939C337.859 613.312 342.765 623.595 342.765 623.595L371.5 622.543C371.5 622.543 368.061 638.583 357.499 649.69C353.286 654.124 346.933 651.705 342.527 648.549C342.527 648.549 340.834 654.471 337.625 655.736C334.416 657.002 323.991 648.746 325.749 646.896Z" fill="#E3A36B"/>
<path d="M362.605 701.765C362.605 701.765 369.938 698.254 375.546 699.778C381.153 701.302 386.878 707.812 386.878 707.812L362.771 708.417L362.605 701.765Z" fill="#E3A36B"/>
<path d="M305.569 655.748C310.555 655.624 315.832 662.146 319.364 670.374C322.895 678.602 326.962 695.42 326.962 695.42L362.873 702.205L362.812 711.759C362.812 711.759 325.6 715.016 315.457 708.614C308.79 704.406 301.251 682.476 299.332 672.543C297.413 662.61 300.586 655.873 305.569 655.748Z" fill="url(#paint37_linear_2293_3437)"/>
<path d="M350.965 712.964L444.832 711.88L445.627 706.45L351.174 707.534L350.965 712.964Z" fill="#9DA1CC"/>
<path d="M393.289 708.155L445.627 706.446L452.609 666.258C452.772 665.318 452.727 664.354 452.476 663.433C452.224 662.513 451.773 661.659 451.155 660.933C450.537 660.207 449.766 659.625 448.898 659.23C448.029 658.835 447.085 658.636 446.131 658.647L405.818 659.107C404.259 659.121 402.758 659.695 401.587 660.725C400.416 661.754 399.654 663.17 399.441 664.714L393.289 708.155Z" fill="#CACCE8"/>
<path d="M393.333 707.05L351.174 707.534L350.965 712.964L393.124 712.476L393.333 707.05Z" fill="#9DA1CC"/>
<path d="M429.997 686.233C429.96 687.167 429.647 688.07 429.098 688.826C428.548 689.583 427.787 690.16 426.91 690.484C426.033 690.808 425.079 690.864 424.17 690.646C423.26 690.428 422.436 689.946 421.801 689.259C421.166 688.573 420.748 687.714 420.602 686.79C420.455 685.867 420.585 684.92 420.976 684.071C421.367 683.222 422.001 682.507 422.798 682.018C423.595 681.529 424.519 681.287 425.453 681.323C426.074 681.347 426.684 681.493 427.249 681.752C427.813 682.012 428.321 682.38 428.742 682.836C429.164 683.292 429.492 683.827 429.707 684.41C429.923 684.993 430.021 685.612 429.997 686.233Z" fill="url(#paint38_linear_2293_3437)"/>
<defs>
<linearGradient id="paint0_linear_2293_3437" x1="645" y1="144" x2="645" y2="789" gradientUnits="userSpaceOnUse">
<stop stop-color="white"/>
<stop offset="1" stop-color="white" stop-opacity="0"/>
</linearGradient>
<linearGradient id="paint1_linear_2293_3437" x1="171.525" y1="354.512" x2="341.397" y2="530.033" gradientUnits="userSpaceOnUse">
<stop stop-color="#DFEDC5"/>
<stop offset="1" stop-color="#DFEDC5"/>
</linearGradient>
<linearGradient id="paint2_linear_2293_3437" x1="996.871" y1="234.971" x2="1078.25" y2="240.579" gradientUnits="userSpaceOnUse">
<stop stop-color="#FF5C65"/>
<stop offset="0.53125" stop-color="#FD008B"/>
<stop offset="1" stop-color="#6500FC"/>
</linearGradient>
<linearGradient id="paint3_linear_2293_3437" x1="746.863" y1="127.889" x2="1000.53" y2="143.062" gradientUnits="userSpaceOnUse">
<stop stop-color="#FF5C65"/>
<stop offset="0.53125" stop-color="#FD008B"/>
<stop offset="1" stop-color="#6500FC"/>
</linearGradient>
<linearGradient id="paint4_linear_2293_3437" x1="1077.87" y1="532.924" x2="1089.05" y2="533.078" gradientUnits="userSpaceOnUse">
<stop stop-color="#FF5C65"/>
<stop offset="0.53125" stop-color="#FD008B"/>
<stop offset="1" stop-color="#6500FC"/>
</linearGradient>
<linearGradient id="paint5_linear_2293_3437" x1="423.461" y1="587.62" x2="434.649" y2="587.775" gradientUnits="userSpaceOnUse">
<stop stop-color="#FF5C65"/>
<stop offset="0.53125" stop-color="#FD008B"/>
<stop offset="1" stop-color="#6500FC"/>
</linearGradient>
<linearGradient id="paint6_linear_2293_3437" x1="519.008" y1="12.3571" x2="530.2" y2="12.5112" gradientUnits="userSpaceOnUse">
<stop stop-color="#FF5C65"/>
<stop offset="0.53125" stop-color="#FD008B"/>
<stop offset="1" stop-color="#6500FC"/>
</linearGradient>
<linearGradient id="paint7_linear_2293_3437" x1="0" y1="719.104" x2="569.1" y2="719.104" gradientUnits="userSpaceOnUse">
<stop stop-color="#5F638A" stop-opacity="0"/>
<stop offset="1" stop-color="#3D4059"/>
</linearGradient>
<linearGradient id="paint8_linear_2293_3437" x1="554.023" y1="600.04" x2="666.817" y2="605.906" gradientUnits="userSpaceOnUse">
<stop stop-color="#FF5C65"/>
<stop offset="0.53125" stop-color="#FD008B"/>
<stop offset="1" stop-color="#6500FC"/>
</linearGradient>
<linearGradient id="paint9_linear_2293_3437" x1="626.707" y1="582.72" x2="678.094" y2="577.024" gradientUnits="userSpaceOnUse">
<stop stop-color="#FF5C65"/>
<stop offset="0.53125" stop-color="#FD008B"/>
<stop offset="1" stop-color="#6500FC"/>
</linearGradient>
<linearGradient id="paint10_linear_2293_3437" x1="587.672" y1="590.898" x2="639.155" y2="585.365" gradientUnits="userSpaceOnUse">
<stop stop-color="#FF5C65"/>
<stop offset="0.53125" stop-color="#FD008B"/>
<stop offset="1" stop-color="#6500FC"/>
</linearGradient>
<linearGradient id="paint11_linear_2293_3437" x1="611.91" y1="587.797" x2="652.343" y2="583.274" gradientUnits="userSpaceOnUse">
<stop stop-color="#FF5C65"/>
<stop offset="0.53125" stop-color="#FD008B"/>
<stop offset="1" stop-color="#6500FC"/>
</linearGradient>
<linearGradient id="paint12_linear_2293_3437" x1="636.586" y1="588.617" x2="681.519" y2="589.476" gradientUnits="userSpaceOnUse">
<stop stop-color="#FF5C65"/>
<stop offset="0.53125" stop-color="#FD008B"/>
<stop offset="1" stop-color="#6500FC"/>
</linearGradient>
<linearGradient id="paint13_linear_2293_3437" x1="730.659" y1="644.3" x2="790.592" y2="644.3" gradientUnits="userSpaceOnUse">
<stop stop-color="#5F638A"/>
<stop offset="1" stop-color="#3D4059"/>
</linearGradient>
<linearGradient id="paint14_linear_2293_3437" x1="726.418" y1="693.924" x2="786.351" y2="693.924" gradientUnits="userSpaceOnUse">
<stop stop-color="#5F638A"/>
<stop offset="1" stop-color="#3D4059"/>
</linearGradient>
<linearGradient id="paint15_linear_2293_3437" x1="758.965" y1="741.905" x2="797.94" y2="595.867" gradientUnits="userSpaceOnUse">
<stop stop-color="#FF5C65"/>
<stop offset="0.53125" stop-color="#FD008B"/>
<stop offset="1" stop-color="#6500FC"/>
</linearGradient>
<linearGradient id="paint16_linear_2293_3437" x1="803.598" y1="746.067" x2="843.377" y2="599.613" gradientUnits="userSpaceOnUse">
<stop stop-color="#FF5C65"/>
<stop offset="0.53125" stop-color="#FD008B"/>
<stop offset="1" stop-color="#6500FC"/>
</linearGradient>
<linearGradient id="paint17_linear_2293_3437" x1="821.438" y1="747.246" x2="780.96" y2="743.143" gradientUnits="userSpaceOnUse">
<stop stop-color="#FF5C65"/>
<stop offset="0.53125" stop-color="#FD008B"/>
<stop offset="1" stop-color="#6500FC"/>
</linearGradient>
<linearGradient id="paint18_linear_2293_3437" x1="809.594" y1="613.176" x2="905.902" y2="617.417" gradientUnits="userSpaceOnUse">
<stop stop-color="#FF5C65"/>
<stop offset="0.53125" stop-color="#FD008B"/>
<stop offset="1" stop-color="#6500FC"/>
</linearGradient>
<linearGradient id="paint19_linear_2293_3437" x1="1277.2" y1="742.957" x2="888.996" y2="730.468" gradientUnits="userSpaceOnUse">
<stop stop-color="#5F638A" stop-opacity="0"/>
<stop offset="1" stop-color="#3D4059"/>
</linearGradient>
<linearGradient id="paint20_linear_2293_3437" x1="466.152" y1="411.886" x2="574.687" y2="417.904" gradientUnits="userSpaceOnUse">
<stop stop-color="#FF5C65"/>
<stop offset="0.53125" stop-color="#FD008B"/>
<stop offset="1" stop-color="#6500FC"/>
</linearGradient>
<linearGradient id="paint21_linear_2293_3437" x1="588.965" y1="410.004" x2="689.388" y2="414.981" gradientUnits="userSpaceOnUse">
<stop stop-color="#FF5C65"/>
<stop offset="0.53125" stop-color="#FD008B"/>
<stop offset="1" stop-color="#6500FC"/>
</linearGradient>
<linearGradient id="paint22_linear_2293_3437" x1="707.727" y1="411.886" x2="816.261" y2="417.904" gradientUnits="userSpaceOnUse">
<stop stop-color="#FF5C65"/>
<stop offset="0.53125" stop-color="#FD008B"/>
<stop offset="1" stop-color="#6500FC"/>
</linearGradient>
<linearGradient id="paint23_linear_2293_3437" x1="477.289" y1="156.208" x2="572.53" y2="162.787" gradientUnits="userSpaceOnUse">
<stop stop-color="#FF5C65"/>
<stop offset="0.53125" stop-color="#FD008B"/>
<stop offset="1" stop-color="#6500FC"/>
</linearGradient>
<linearGradient id="paint24_linear_2293_3437" x1="461.207" y1="166.113" x2="507.033" y2="167.778" gradientUnits="userSpaceOnUse">
<stop stop-color="#FF5C65"/>
<stop offset="0.53125" stop-color="#FD008B"/>
<stop offset="1" stop-color="#6500FC"/>
</linearGradient>
<linearGradient id="paint25_linear_2293_3437" x1="540.387" y1="165.228" x2="586.956" y2="166.892" gradientUnits="userSpaceOnUse">
<stop stop-color="#FF5C65"/>
<stop offset="0.53125" stop-color="#FD008B"/>
<stop offset="1" stop-color="#6500FC"/>
</linearGradient>
<linearGradient id="paint26_linear_2293_3437" x1="517.566" y1="213.811" x2="527.848" y2="214.456" gradientUnits="userSpaceOnUse">
<stop stop-color="#FF5C65"/>
<stop offset="0.53125" stop-color="#FD008B"/>
<stop offset="1" stop-color="#6500FC"/>
</linearGradient>
<linearGradient id="paint27_linear_2293_3437" x1="587.532" y1="242.735" x2="499.587" y2="275.904" gradientUnits="userSpaceOnUse">
<stop stop-color="#121729"/>
<stop offset="1" stop-color="#282C3B"/>
</linearGradient>
<linearGradient id="paint28_linear_2293_3437" x1="450.557" y1="246.242" x2="539.006" y2="271.119" gradientUnits="userSpaceOnUse">
<stop stop-color="#121729"/>
<stop offset="1" stop-color="#282C3B"/>
</linearGradient>
<linearGradient id="paint29_linear_2293_3437" x1="957.66" y1="686.741" x2="1080.29" y2="686.741" gradientUnits="userSpaceOnUse">
<stop stop-color="#121729"/>
<stop offset="1" stop-color="#282C3B"/>
</linearGradient>
<linearGradient id="paint30_linear_2293_3437" x1="981.191" y1="577.322" x2="1064.42" y2="581.962" gradientUnits="userSpaceOnUse">
<stop stop-color="#FF5C65"/>
<stop offset="0.53125" stop-color="#FD008B"/>
<stop offset="1" stop-color="#6500FC"/>
</linearGradient>
<linearGradient id="paint31_linear_2293_3437" x1="948.387" y1="566.743" x2="1017.47" y2="569.304" gradientUnits="userSpaceOnUse">
<stop stop-color="#FF5C65"/>
<stop offset="0.53125" stop-color="#FD008B"/>
<stop offset="1" stop-color="#6500FC"/>
</linearGradient>
<linearGradient id="paint32_linear_2293_3437" x1="958.273" y1="579.457" x2="1043.88" y2="584.276" gradientUnits="userSpaceOnUse">
<stop stop-color="#FF5C65"/>
<stop offset="0.53125" stop-color="#FD008B"/>
<stop offset="1" stop-color="#6500FC"/>
</linearGradient>
<linearGradient id="paint33_linear_2293_3437" x1="1094.27" y1="637.658" x2="1103.07" y2="638.134" gradientUnits="userSpaceOnUse">
<stop stop-color="#FF5C65"/>
<stop offset="0.53125" stop-color="#FD008B"/>
<stop offset="1" stop-color="#6500FC"/>
</linearGradient>
<linearGradient id="paint34_linear_2293_3437" x1="142" y1="648.753" x2="263" y2="711.3" gradientUnits="userSpaceOnUse">
<stop stop-color="#282C3B"/>
<stop offset="1" stop-color="#121729"/>
</linearGradient>
<linearGradient id="paint35_linear_2293_3437" x1="329.93" y1="652.357" x2="393.452" y2="656.517" gradientUnits="userSpaceOnUse">
<stop stop-color="#FF5C65"/>
<stop offset="0.53125" stop-color="#FD008B"/>
<stop offset="1" stop-color="#6500FC"/>
</linearGradient>
<linearGradient id="paint36_linear_2293_3437" x1="248.605" y1="646.365" x2="349.726" y2="655.49" gradientUnits="userSpaceOnUse">
<stop stop-color="#FF5C65"/>
<stop offset="0.53125" stop-color="#FD008B"/>
<stop offset="1" stop-color="#6500FC"/>
</linearGradient>
<linearGradient id="paint37_linear_2293_3437" x1="298.766" y1="655.747" x2="366.399" y2="660.309" gradientUnits="userSpaceOnUse">
<stop stop-color="#FF5C65"/>
<stop offset="0.53125" stop-color="#FD008B"/>
<stop offset="1" stop-color="#6500FC"/>
</linearGradient>
<linearGradient id="paint38_linear_2293_3437" x1="420.543" y1="681.319" x2="430.53" y2="681.917" gradientUnits="userSpaceOnUse">
<stop stop-color="#FF5C65"/>
<stop offset="0.53125" stop-color="#FD008B"/>
<stop offset="1" stop-color="#6500FC"/>
</linearGradient>
</defs>
</svg>
