<svg width="50" height="50" viewBox="0 0 50 50" fill="none" xmlns="http://www.w3.org/2000/svg">
<path d="M21.1514 11.5742C21.2575 11.7901 21.3276 12.0214 21.359 12.2592L21.9391 20.884L22.227 25.2191C22.23 25.6649 22.2999 26.1078 22.4346 26.5336C22.7823 27.3596 23.6189 27.8847 24.5291 27.8481L38.3985 26.9409C38.999 26.931 39.579 27.1556 40.0108 27.5653C40.3705 27.9067 40.6028 28.3534 40.676 28.8338L40.7006 29.1255C40.1266 37.0728 34.2898 43.7015 26.3589 45.4126C18.4281 47.1238 10.2954 43.5091 6.37632 36.5312C5.24648 34.5039 4.54078 32.2757 4.30063 29.9772C4.20031 29.2968 4.15614 28.6095 4.16854 27.9221C4.15616 19.4017 10.2237 12.0355 18.7172 10.2597C19.7394 10.1005 20.7416 10.6416 21.1514 11.5742Z" fill="#F2994A"/>
<path opacity="0.4" d="M26.8124 4.16858C36.3121 4.41026 44.2963 11.2414 45.8332 20.4425L45.8185 20.5104L45.7766 20.6091L45.7824 20.8801C45.7606 21.2392 45.622 21.5847 45.3831 21.8637C45.1343 22.1544 44.7943 22.3523 44.4198 22.4292L44.1915 22.4605L28.1899 23.4973C27.6576 23.5498 27.1277 23.3782 26.7318 23.0251C26.402 22.7309 26.1911 22.3337 26.1315 21.9058L25.0575 5.92742C25.0388 5.87339 25.0388 5.81482 25.0575 5.76079C25.0722 5.32035 25.266 4.90404 25.5958 4.60485C25.9255 4.30566 26.3637 4.14854 26.8124 4.16858Z" fill="#F2994A"/>
</svg>
