<svg width="193" height="241" viewBox="0 0 193 241" fill="none" xmlns="http://www.w3.org/2000/svg">
<path opacity="0.1" d="M173.063 172.947C171.753 170.63 170.14 165.451 167.855 162.01C165.57 158.568 161.51 156.958 159.666 157.723C157.821 158.487 159.84 164.593 160.826 166.691C161.417 167.954 161.924 169.254 162.345 170.584C161.011 170.92 158.425 171.823 155.385 172.669C155.385 172.669 155.003 172.379 154.423 172.02L156.476 170.641C156.609 170.567 156.723 170.462 156.808 170.335C156.892 170.208 156.946 170.063 156.963 169.912L156.708 167.71C156.737 167.616 156.737 167.515 156.708 167.42L156.406 164.848C156.39 164.733 156.344 164.625 156.273 164.533C156.202 164.442 156.108 164.371 156 164.327L133.821 153.563C133.457 153.426 133.066 153.377 132.679 153.419C132.292 153.462 131.92 153.594 131.594 153.806L117.535 163.319C117.391 163.394 117.27 163.507 117.186 163.646C117.102 163.785 117.059 163.944 117.06 164.107L117.373 166.864L117.628 169.054V169.216C117.628 169.216 117.628 169.286 117.628 169.321C117.632 169.348 117.632 169.375 117.628 169.402C117.71 169.503 117.813 169.586 117.93 169.645L121.816 171.534L121.004 172.078C120.838 172.173 120.699 172.307 120.597 172.469C120.496 172.631 120.437 172.815 120.424 173.005L120.505 174.164C120.558 174.409 120.704 174.624 120.911 174.766L120.795 174.859L120.528 175.056L120.366 175.183L120.25 175.276H119.89H119.786C118.255 175.612 113.986 179.436 113.986 179.436C113.986 179.436 110.993 182.239 108.105 184.985C106.945 185.669 105.054 186.758 103.384 187.766C104.544 181.614 106.365 170.387 106.179 169.726C105.299 168.45 104.017 167.503 102.537 167.038H102.467C102.473 166.969 102.473 166.899 102.467 166.83C102.474 166.776 102.474 166.721 102.467 166.667V166.076C102.467 165.984 102.467 165.879 102.467 165.787V165.277V164.987C102.467 164.74 102.444 164.508 102.398 164.292C102.361 163.851 102.291 163.413 102.189 162.983C102.194 162.944 102.194 162.905 102.189 162.867H102.351C102.942 162.08 103.462 161.242 103.906 160.364C107.906 158.534 111.701 156.286 115.227 153.656C118.946 150.838 123.007 148.502 127.314 146.704C127.314 146.704 136.594 145.035 141.686 140.911C145.966 137.435 147.37 135.43 147.718 134.874C148.391 134.735 148.971 135.013 149.458 134.445L144.18 132.626C141.951 133.372 139.774 134.263 137.661 135.291C136.352 135.891 134.899 136.104 133.473 135.905C132.313 135.732 130.91 135.558 130.458 135.558H128.544L126.989 135.639C125.261 135.743 123.544 135.975 121.85 136.334C121.85 136.334 128.184 132.928 130.701 131.433L130.875 131.375C131.958 131.014 133.006 130.557 134.007 130.008L134.355 129.799C134.539 129.689 134.717 129.569 134.889 129.44L135.074 129.313C135.213 129.197 135.353 129.081 135.48 128.953C136.717 128.363 137.914 127.693 139.065 126.949C139.772 126.416 136.663 122.847 136.211 121.156L130.84 123.23C129.576 124.006 127.558 124.817 118.278 128.027C118.278 128.027 111.051 125.964 100.878 129.521C97.3982 130.749 94.5911 131.757 92.3987 132.615L92.2015 132.684L91.1343 133.113L90.8675 133.217L89.7076 133.704C89.6351 133.728 89.5652 133.759 89.4988 133.797L88.6752 134.144L88.4084 134.272L87.7472 134.584L87.5268 134.689C87.2561 134.82 87.0125 134.948 86.796 135.071H86.7148L86.1697 135.372L85.9956 135.477C83.5043 133.733 80.8037 132.308 77.957 131.236C77.957 131.236 72.5515 128.733 70.9971 129.811C69.4428 130.888 58.945 146.125 56.7758 147.631C54.6067 149.137 46.9856 154.756 46.9856 154.756C45.813 153.858 44.7187 152.862 43.7145 151.779C42.0905 150.006 32.6019 140.911 32.0103 140.192C31.4188 139.474 20.2946 128.606 19.2506 126.567C18.8684 125.969 18.331 125.486 17.6956 125.17C17.0603 124.854 16.3509 124.716 15.6431 124.771C15.3341 123.552 14.6481 122.461 13.6827 121.654C12.8019 120.798 12.1035 119.774 11.6296 118.642C11.6296 118.491 11.6876 118.039 11.6876 118.039C11.8375 117.932 11.9599 117.792 12.0446 117.629C12.1293 117.465 12.1739 117.284 12.1747 117.101C12.1167 116.556 10.7364 116.533 10.516 116.371C10.1421 116.09 9.73255 115.86 9.29803 115.687C7.79669 115.995 6.33119 116.457 4.9249 117.066C4.83042 117.133 4.75138 117.22 4.69292 117.321C4.67805 117.358 4.65854 117.393 4.6349 117.425C4.54067 117.622 4.46682 117.827 4.4145 118.039C4.4145 118.039 4.4145 118.109 4.4145 118.155C4.40923 118.217 4.40923 118.279 4.4145 118.34C4.42099 118.379 4.42099 118.418 4.4145 118.456C4.42095 118.51 4.42095 118.564 4.4145 118.618C4.40939 118.657 4.40939 118.696 4.4145 118.734C4.4145 118.734 4.4145 118.815 4.4145 118.85C4.42109 118.881 4.42109 118.912 4.4145 118.943V119.059C4.4145 119.059 1.87416 116.185 1.70016 115.942C1.52617 115.699 0.389411 115.316 0.0530176 116.046C-0.283375 116.776 3.99693 122.083 3.99693 122.083C4.06918 122.822 4.25708 123.545 4.55373 124.226C5.01772 125.199 8.24243 127.03 9.10082 127.795C9.8867 128.672 10.5572 129.645 11.096 130.691C12.256 133.009 23.1945 147.353 26.8021 150.168C30.4096 152.984 33.3791 158.07 35.1075 159.912C36.8359 161.755 37.1607 169.182 37.1607 169.182L38.6222 172.24L38.1698 172.495C38.1698 172.495 37.2419 172.032 36.7199 172.646C36.1979 173.26 34.9915 176.122 34.7247 176.412C34.4579 176.701 31.8247 177.57 30.8852 178.856C30.2435 179.796 29.6549 180.771 29.122 181.776C28.9103 181.758 28.6977 181.798 28.5072 181.892C26.8833 182.715 25.4449 190.825 29.6672 194.637C33.8895 198.449 41.267 200.43 45.9069 194.776C46.3709 194.208 46.7652 193.617 47.1364 193.142L47.206 193.038C47.5656 192.517 47.8788 192.03 48.1688 191.567L48.2732 191.37C48.5516 190.906 48.7952 190.466 48.9924 190.06C48.9967 190.026 48.9967 189.991 48.9924 189.956C49.3417 189.255 49.6327 188.527 49.8624 187.778C49.8624 187.778 49.8624 187.778 49.8624 187.708C49.9435 187.43 50.0016 187.175 50.048 186.955V186.874C50.048 186.666 50.106 186.492 50.1292 186.341V186.283C50.1292 186.144 50.1292 186.04 50.1292 185.97V185.797L55.1751 185.669C55.1751 185.669 65.6148 190.825 69.0948 192.088C69.0948 192.088 78.9314 192.818 79.7317 192.969C83.1242 193.832 86.5583 194.525 90.0207 195.043C88.4663 195.807 87.028 196.526 85.9956 197.093C83.705 198.358 81.6203 199.964 79.8129 201.855C78.2201 204.656 77.1805 207.736 76.7506 210.928C75.4938 211.588 74.4098 212.534 73.5858 213.689C72.7618 214.844 72.2208 216.176 72.0063 217.578C71.3408 217.53 70.6965 217.323 70.1272 216.976C69.7327 216.725 69.3964 216.393 69.1411 216.002C68.9787 215.759 68.8164 215.539 68.654 215.33L68.5148 215.157L68.0856 214.763L67.9348 214.6L67.61 214.299L67.494 214.195L67.0764 213.894C66.7953 213.711 66.4571 213.637 66.1252 213.685C65.2356 213.983 64.3186 214.193 63.3877 214.311C62.0705 214.51 60.7765 214.84 59.525 215.296C59.525 215.296 58.365 214.137 57.6922 214.403C57.0194 214.67 55.2794 216.489 55.0822 216.489C54.078 216.446 53.0785 216.649 52.1708 217.08C50.8973 217.816 49.7499 218.751 48.772 219.849C47.2872 219.154 45.5705 220.95 45.5705 220.95C43.8305 223.186 43.1925 229.802 48.8416 236.568C54.4906 243.335 60.9402 240.334 63.0281 238.225C64.9421 236.302 68.828 232.78 69.988 231.517L70.2431 231.401C70.4819 232.459 71.0446 233.417 71.8532 234.142C72.6618 234.867 73.6761 235.322 74.7555 235.444C74.7555 235.444 89.9859 236.059 93.5123 230.474C97.0386 224.889 107.432 216.964 110.448 215.898C112.895 215.018 121.711 212.167 124.901 211.148C125.661 210.902 126.336 210.449 126.85 209.838C127.091 209.551 127.387 209.315 127.72 209.143L130.295 207.811C130.685 207.613 131.002 207.296 131.2 206.907C132.128 205.043 132.706 203.024 132.905 200.952L132.986 200.894L133.207 200.766H133.288L133.636 200.558L133.74 200.488L134.239 200.198C136.257 199.04 140.039 196.977 142.498 196.549C146.228 195.7 149.836 194.388 153.239 192.644C154.26 191.961 162.774 186.7 163.157 186.561C163.536 186.446 163.924 186.364 164.317 186.318C164.317 186.318 165.814 186.503 166.254 185.75C166.695 184.997 167.774 183.062 164.433 180.559C164.783 180.228 165.173 179.94 165.593 179.702C166.753 179.076 168.957 178.995 170.105 178.543C170.303 178.466 170.489 178.365 170.662 178.242C173.226 178.034 174.374 175.299 173.063 172.947ZM9.13561 122.384C8.59042 122.06 8.12644 121.816 8.12644 121.816C8.12644 121.816 7.61605 121.052 7.51165 121.098C7.55853 120.923 7.5527 120.739 7.49491 120.568C7.43712 120.397 7.32994 120.247 7.18686 120.136C7.33203 119.914 7.42696 119.664 7.46503 119.402C7.5031 119.139 7.48339 118.872 7.40726 118.618C7.84051 118.829 8.25229 119.081 8.63683 119.371C8.8773 119.728 9.14078 120.069 9.42561 120.391C9.85243 120.728 10.1941 121.161 10.4232 121.654C10.4232 121.654 9.6692 122.708 9.13561 122.384ZM71.1479 230.984C70.9866 231.064 70.82 231.134 70.6492 231.192C70.8232 231.111 70.9855 230.984 71.1479 230.984ZM72.2383 231.876H72.1803L71.7859 231.806H71.7047L71.3567 231.725H71.2755L70.9739 231.632L70.7188 231.528H70.6607L70.4519 231.436H70.5911C71.2143 231.769 71.8954 231.982 72.5979 232.061L72.2383 231.876ZM73.5259 231.876C73.9059 231.786 74.2635 231.619 74.5767 231.386C74.8899 231.153 75.152 230.858 75.3471 230.52C75.1608 230.859 74.9002 231.152 74.5849 231.377C74.2696 231.602 73.9076 231.752 73.5259 231.818V231.876ZM75.4979 230.254C75.4979 230.254 75.4979 230.312 75.4979 230.346L75.6022 230.092C75.6022 230.092 75.5211 230.138 75.4979 230.196V230.254ZM76.2054 214.763C76.2054 214.531 76.2054 214.369 76.2054 214.241C76.2054 214.392 76.2054 214.566 76.2054 214.763ZM96.3542 167.131C96.3542 167.131 95.867 179.737 94.3822 183.051C94.3822 183.051 85.752 181.892 82.8753 180.733C83.5247 178.451 84.3229 176.214 85.2648 174.036C86.0652 172.553 90.1136 168.243 92.3175 165.926C93.6659 166.418 95.0504 166.805 96.4586 167.084L96.3542 167.131ZM123.289 173.503C123.163 173.532 123.042 173.579 122.929 173.642L122.674 173.515L123.068 173.248L124.089 172.553L127.036 173.978L129.066 174.975L128.323 175.473C128.129 175.588 127.913 175.659 127.689 175.683C127.465 175.707 127.238 175.683 127.024 175.612C127.198 175.438 127.244 175.218 126.931 174.894C125.91 173.991 124.595 173.489 123.231 173.48L123.289 173.503ZM129.901 177.223H129.819L128.938 177.512L128.346 177.698L127.534 177.976L127.001 178.161L126.27 178.404L125.806 178.567L125.18 178.798L124.808 178.926C125.052 178.474 125.249 178.045 125.388 177.767C125.445 177.625 125.451 177.468 125.404 177.322C125.358 177.176 125.262 177.051 125.133 176.968H125.203L126.258 177.477C126.76 177.687 127.303 177.776 127.845 177.737C128.387 177.699 128.912 177.535 129.379 177.257L131.153 176.099L132.244 176.632C131.385 176.724 130.597 176.956 129.843 177.199L129.901 177.223Z" fill="url(#paint0_linear_3844_495)"/>
<path d="M149.285 132.719L149.367 133.113L149.494 132.846C149.806 133.827 149.834 134.875 149.575 135.871C148.911 137.16 148.135 138.39 147.255 139.543C146.177 140.957 144.46 143.888 144.008 144.456C142.296 146.153 140.076 147.243 137.686 147.561C134.414 147.897 133.579 146.02 133.846 145.012C134.842 142.849 136.177 140.858 137.802 139.115C139.104 137.566 140.239 135.884 141.189 134.098L149.285 132.719Z" fill="#162184"/>
<path d="M139.469 123.821C139.528 124.811 139.489 125.804 139.353 126.787C139.133 127.656 134.307 127.945 132.602 128.142C130.653 128.545 128.76 129.183 126.965 130.043C126.037 130.494 119.784 131.201 119.019 128.884C118.253 126.567 122.151 124.643 124.819 124.041C127.487 123.438 131.778 122.106 131.778 122.106L139.469 123.821Z" fill="#162184"/>
<path d="M156.173 82.2253C156.136 86.9572 155.532 91.6678 154.375 96.2564C153.213 100.772 152.632 105.417 152.646 110.079C152.646 110.079 154.7 119.279 152.89 125.559C151.08 131.838 149.549 133.588 149.549 133.588C149.078 134.236 148.468 134.772 147.765 135.157C147.061 135.542 146.281 135.767 145.48 135.814C144.679 135.862 143.877 135.732 143.133 135.433C142.388 135.134 141.719 134.674 141.174 134.086C142.709 129.041 143.712 123.849 144.167 118.595C142.767 115.537 141.705 112.336 141 109.048C141 109.048 140.316 116.208 139.91 119.093C139.91 119.093 140.316 123.346 139.191 125.06C138.065 126.775 132.95 127.273 131.326 124.284C129.702 121.295 132.683 122.766 131.778 109.048C131.778 109.048 127.069 103.255 126.396 92.4213C125.723 81.588 125.781 77.3589 126.396 75.285C127.011 73.211 137.428 65.6219 137.428 65.6219L143.309 73.1183L156.173 82.2253Z" fill="#242993"/>
<path d="M132.976 94.2636C131.282 92.236 130.331 85.8635 130.331 85.8635C130.331 85.8635 132.976 91.2164 134.878 92.8153C136.823 94.5993 138.171 96.9372 138.741 99.5123C139.077 101.552 141.061 109.094 141.061 109.094C141.061 109.094 140.376 116.255 139.97 119.14C139.97 119.14 140.376 123.392 139.251 125.107C138.951 125.496 138.55 125.796 138.091 125.976C138.091 125.895 138.381 116.51 138.091 112.524C137.801 108.538 134.669 96.2913 132.976 94.2636Z" fill="#162184"/>
<path d="M171.821 38.7878C171.821 38.7878 176.31 47.5587 176.763 48.2307C177.215 48.9027 185.625 59.6202 186.437 65.8073C186.437 65.8073 187.075 68.1941 184.175 70.3145C181.275 72.4348 166.683 81.7039 165.778 81.8314C164.873 81.9588 159.584 79.3982 159.352 73.6166C159.352 73.6166 170.801 68.2868 173.271 65.6219C173.271 65.6219 168.817 58.1487 166.636 55.9473C166.022 55.1473 165.659 54.1838 165.592 53.1781C165.273 50.7512 165.551 48.2832 166.402 45.9877C167.253 43.6923 168.651 41.6386 170.476 40.0043L171.821 38.7878Z" fill="#485DCE"/>
<path d="M138.228 18.245C138.228 18.245 131.268 20.8172 128.948 19.9366C126.628 19.056 120.747 18.3145 116.745 16.0783C112.743 13.8421 95.2623 9.33502 92.6755 9.12646C92.6755 9.12646 92.6756 9.23074 93.0584 9.41613C93.688 9.49529 94.2805 9.75694 94.7629 10.1688C95.2453 10.5806 95.5963 11.1245 95.7727 11.7334C96.0725 13.334 95.7578 14.9888 94.8911 16.368C94.6011 16.5418 94.4271 15.8118 92.7568 15.0471C91.9185 14.6152 90.9963 14.3701 90.054 14.3288L89.416 15.1282L89.0332 15.7076C89.2572 16.3831 89.6601 16.9854 90.1993 17.4506C90.7385 17.9157 91.3938 18.2263 92.0956 18.3493C94.3343 18.5115 108.718 24.5132 109.623 24.7797C110.528 25.0462 122.591 30.2485 124.853 31.0596C126.245 31.5626 127.592 32.1828 128.878 32.9134C128.878 32.9134 135.931 28.2093 136.163 28.2093C136.395 28.2093 138.228 18.245 138.228 18.245Z" fill="#242993"/>
<path d="M75.3705 6.20669C75.6605 6.27621 79.3027 7.49279 79.3027 7.49279C79.3027 7.49279 77.8528 8.23433 77.7252 8.89475C77.7092 10.4272 77.853 11.9571 78.1544 13.4598C78.5008 13.7962 78.891 14.0846 79.3143 14.3172C79.5463 14.4447 80.1031 15.7192 80.6251 15.557C80.7956 15.486 80.9467 15.3753 81.0657 15.2342C81.1847 15.0932 81.2684 14.9257 81.3095 14.7459C81.3095 14.7459 81.7155 14.5373 81.8315 14.4562C83.0621 14.4559 84.2806 14.7001 85.4158 15.1746C86.5298 15.7599 87.8042 15.9673 89.0466 15.7655C89.8203 15.4985 90.5726 15.1731 91.2969 14.7922C91.7767 14.8598 92.245 14.9924 92.6889 15.1862C93.1877 15.4411 94.7653 16.507 95.0089 16.5997C95.2524 16.6924 98.4888 10.3315 92.6889 9.12648C91.5035 9.04026 90.334 8.80273 89.209 8.41971C88.165 7.92149 85.2303 5.66214 84.1399 5.61579C83.3965 5.60765 82.6566 5.71714 81.9475 5.94021C81.9475 5.94021 75.3937 4.0632 74.8485 4.65411C74.3033 5.24502 75.0457 6.20669 75.3705 6.20669ZM80.1147 10.5632C80.3794 10.5363 80.6349 10.4518 80.8634 10.3157C81.0918 10.1796 81.2877 9.99514 81.4371 9.77532C81.5943 9.86383 81.7743 9.90341 81.9541 9.88896C82.1339 9.87451 82.3053 9.80668 82.4463 9.6942C82.4463 9.81007 83.3395 9.98386 83.3395 9.98386C83.3395 9.98386 83.7455 10.3199 84.2559 10.6906C84.7662 11.0614 84.0934 12.1737 84.0934 12.1737C83.5474 12.1539 83.0143 12.0029 82.5391 11.7334C82.132 11.6016 81.7175 11.4933 81.2979 11.409C80.8788 11.1811 80.4825 10.9133 80.1147 10.6095V10.5632Z" fill="#FCE8EE"/>
<path d="M126.396 75.285C126.999 73.1878 137.428 65.6219 137.428 65.6219L140.351 69.3411L142.856 79.0853L156.161 83.2217C156.161 83.2217 155.454 89.8723 144.619 89.1076C133.785 88.3429 132.498 79.9427 132.498 79.9427C132.498 79.9427 131.338 82.7003 125.944 83.4187C125.828 78.9695 125.99 76.6638 126.396 75.285Z" fill="#162184"/>
<path d="M158.633 23.7139L160.466 28.3485C160.466 28.3485 169.293 35.9724 171.822 38.7763C169.149 44.1684 167.412 49.9745 166.684 55.9474C164.828 57.4292 163.073 59.0317 161.429 60.7442C160.211 62.262 157.125 69.2602 156.139 71.5659C155.153 73.8716 157.902 80.8351 157.902 80.8351C157.902 80.8351 154.144 87.7869 148.112 87.532C142.08 87.2771 137.963 83.6158 137.185 77.1042C136.408 70.5927 136.652 69.6078 136.652 69.6078C136.652 69.6078 133.937 77.6488 129.819 77.6488C125.702 77.6488 119.171 70.6969 119.171 70.6969C119.171 70.6969 114.763 66.6996 115.169 64.9037C115.575 63.1078 125.609 47.4661 126.096 44.8939C126.583 42.3218 128.868 33.1105 128.868 33.1105L138.264 18.3378L143.994 18.6043L158.633 23.7139Z" fill="url(#paint1_linear_3844_495)"/>
<path d="M158.634 23.7137C158.61 25.6198 158.249 27.5067 157.567 29.2868C156.465 32.0676 152.845 47.7093 144.644 53.0622L141.489 55.0666V45.1023C141.524 41.7158 142.012 38.3491 142.939 35.0916C143.829 32.3001 144.287 29.3893 144.296 26.4597C144.296 26.4597 146.616 25.8341 146.616 25.8804C146.616 25.9267 158.634 23.7137 158.634 23.7137Z" fill="#F0FFFF"/>
<path d="M148.517 30.9784C148.517 30.9784 147.067 31.5693 146.44 30.6308C145.715 29.5131 145.332 28.2086 145.338 26.8768C145.338 26.8768 141.452 27.0738 140.698 25.0462C140.459 24.5401 140.351 23.9822 140.384 23.4236C140.416 22.865 140.588 22.3234 140.884 21.8483C141.01 20.666 141.262 19.5006 141.638 18.3724L141.696 17.851C141.696 17.851 140.907 17.1674 141.267 16.4606C141.626 15.7538 143.749 13.5408 143.97 13.1701C144.19 12.7993 143.97 10.0533 144.735 8.68611C145.479 7.55101 146.289 6.46006 147.159 5.41874C147.159 5.41874 155.43 -1.02332 161.949 5.41874C168.468 11.8608 158.643 23.7369 158.643 23.7369C158.643 23.7369 157.854 27.5604 155.964 29.0898C154.073 30.6192 148.517 30.9784 148.517 30.9784Z" fill="#FCE8EE"/>
<path d="M154.573 15.2789C154.567 15.0429 154.602 14.8076 154.677 14.5837C154.941 13.8543 154.953 13.0578 154.711 12.3209C154.469 11.584 153.988 10.949 153.343 10.5169C150.861 8.70938 146.465 7.04093 146.604 5.27979C146.743 3.51866 153.656 -1.00005 158.772 1.39835C163.887 3.79674 168.667 9.84485 165.187 16.2522C161.707 22.6595 158.633 23.7138 158.633 23.7138C158.633 23.7138 157.589 23.4937 158.528 22.4277C159.468 21.3618 161.15 18.6737 159.688 17.7932C158.227 16.9126 155.837 18.778 155.512 19.1835C155.396 19.3457 155.269 19.5427 155.153 19.7281C155.065 19.8741 154.927 19.9823 154.764 20.0316C154.601 20.0809 154.425 20.0677 154.271 19.9946H154.155C153.998 19.9234 153.875 19.7947 153.81 19.6352C153.745 19.4757 153.744 19.2974 153.807 19.1372L154.41 17.4687C154.504 17.225 154.548 16.9649 154.538 16.704L154.573 15.2789Z" fill="#AA9AAC"/>
<path d="M148.726 32.7859C150.007 33.7971 151.015 35.1112 151.66 36.6095C150.759 35.6458 149.719 34.8218 148.575 34.1647C148.575 34.1647 146.406 35.1843 146.406 35.8563C146.348 38.1888 146.107 40.5132 145.687 42.8082C145.176 44.9981 145.234 52.6683 145.234 52.6683L143.865 53.572L143.216 50.212L143.459 43.0284L144.735 36.4936C144.735 36.4936 144.979 34.0141 145.083 33.8867C145.188 33.7592 148.726 32.7859 148.726 32.7859Z" fill="#C4E3FF"/>
<path d="M148.727 32.786C148.727 32.786 146.627 30.5498 145.572 30.4687C145.262 30.4249 144.945 30.4629 144.654 30.5787C144.364 30.6945 144.108 30.8843 143.913 31.1291C143.913 31.2566 142.892 34.7557 142.892 34.7557C141.64 39.0594 141.057 43.5299 141.164 48.0106C141.361 55.1247 141.535 55.0667 141.535 55.0667L144.133 53.4099C143.751 49.7342 143.994 46.0205 144.853 42.4259C146.279 36.54 145.027 35.6594 145.699 35.0454C146.372 34.4313 149.063 33.5044 148.727 32.786Z" fill="#242993"/>
<path d="M161.394 60.7439C160.176 62.2618 157.148 69.2484 156.162 71.5541C155.977 72.0101 155.886 72.4988 155.895 72.9908L155.489 73.2573L154.167 71.9712C154.167 71.9712 155.327 67.6958 157.252 62.4124C159.178 57.129 166.648 55.9471 166.648 55.9471C164.793 57.429 163.038 59.0314 161.394 60.7439Z" fill="#242993"/>
<path d="M159.354 73.7903C158.519 72.5507 157.576 71.3875 156.535 70.3143C156.535 70.3143 156.686 71.1949 155.468 71.7395C154.25 72.284 147.859 74.7519 147.638 75.0416C147.418 75.3313 147.638 75.6904 148.067 75.7715C147.463 75.9872 146.837 76.1349 146.2 76.2118C145.655 76.2118 144.935 76.8954 145.295 77.4747C145.655 78.0541 145.968 78.0193 145.968 78.0193C145.968 78.0193 145.805 78.6797 146.2 78.8188C146.64 78.9282 147.092 78.9865 147.545 78.9926C147.49 79.1607 147.494 79.3424 147.555 79.5085C147.616 79.6745 147.731 79.8152 147.882 79.9079C148.906 80.1691 149.949 80.3512 151.002 80.4525C151.002 80.4525 153.032 80.2323 153.6 80.2207C155.033 80.4835 156.483 80.6423 157.939 80.6958C159.709 80.2696 161.443 79.704 163.124 79.0042C163.495 78.7377 159.354 73.7903 159.354 73.7903Z" fill="#FCE8EE"/>
<path d="M160.882 29.9357L160.616 34.13L158.296 34.8367L159.815 36.0997C159.815 36.0997 153.656 50.0845 145.791 54.5105C145.791 54.5105 153.296 51.8456 160.395 36.2155C160.395 36.2155 159.653 35.3349 159.421 35.0569L161.01 34.3617L160.882 29.9357Z" fill="#242993"/>
<path d="M140.769 29.4954C140.769 29.4954 137.985 43.7583 140.363 54.5105C140.363 54.5105 137.498 49.343 140.085 29.4954H140.769Z" fill="#242993"/>
<path d="M77.8633 8.63982C78.2714 8.18828 78.7589 7.8152 79.3016 7.53909C79.3016 7.53909 82.2712 8.69774 82.7816 8.9874C82.7816 8.9874 79.6844 8.66299 77.8633 8.63982Z" fill="#E2C8CF"/>
<path d="M94.9496 16.6345C94.5701 16.431 94.2023 16.2066 93.8476 15.9625C95.8196 13.3092 93.6504 9.47408 93.6504 9.46249C98.0119 11.1773 95.17 16.7272 94.9496 16.6345Z" fill="#E2C8CF"/>
<path d="M163.123 78.958C161.845 79.4867 160.54 79.947 159.214 80.3367C158.751 78.6554 158.494 76.924 158.448 75.1808C158.669 73.8947 159.214 73.5934 159.214 73.5934L159.353 73.7904C159.353 73.7904 163.494 78.7378 163.123 78.958Z" fill="#E2C8CF"/>
<path d="M159.355 73.6166C159.177 74.2955 159.162 75.0064 159.309 75.6925C159.456 76.3785 159.761 77.0207 160.201 77.5676C161.721 79.3055 161.883 79.5257 161.883 79.5257H163.612C163.94 78.6125 164.196 77.675 164.377 76.7218C164.238 76.6638 159.355 73.6166 159.355 73.6166Z" fill="#485DCE"/>
<path d="M143.217 33.6549C143.217 33.6549 141.559 43.4455 141.93 47.0373C142.156 49.5215 142.234 52.0171 142.162 54.5105L141.64 54.9624L141.489 55.0667C141.489 55.0667 141.315 55.1246 141.118 48.0105C141.029 43.5391 141.628 39.0806 142.893 34.7904L143.217 33.6549Z" fill="#242993"/>
<path d="M142.671 135.175C142.133 134.87 141.631 134.504 141.175 134.086C142.71 129.04 143.713 123.849 144.168 118.595C142.768 115.537 141.706 112.336 141.001 109.048C141.221 109.952 143.959 114.841 145.2 119.73C146.441 124.62 142.671 135.175 142.671 135.175Z" fill="#162184"/>
<path d="M154.804 22.1263C154.804 22.3697 154.05 25.8572 152.647 27.4909C151.243 29.1245 150.06 30.8162 150.06 30.8162C149.155 30.932 148.517 30.9784 148.517 30.9784C148.517 30.9784 147.067 31.5693 146.441 30.6308C145.716 29.5131 145.333 28.2085 145.339 26.8768C145.339 26.8768 150.57 26.3438 152.577 24.9534C153.647 24.3219 154.441 23.3134 154.804 22.1263Z" fill="#E2C8CF"/>
<path d="M156.698 70.3028C156.698 70.3028 156.419 70.9053 156.373 70.9517C156.326 70.998 156.245 70.4882 156.245 70.4882C156.245 70.4882 156.477 70.0016 156.489 70.0016C156.566 70.0963 156.636 70.1971 156.698 70.3028Z" fill="#1B4263"/>
<path d="M141.485 55.0667C141.485 55.0667 137.831 66.7226 136.613 69.5497L136.683 72.3536C136.683 72.3536 141.334 57.8706 141.485 55.0667Z" fill="#242993"/>
<path d="M137.949 59.2261C137.896 59.3805 137.874 59.5439 137.884 59.7067C137.895 59.8696 137.937 60.0288 138.01 60.1752C138.082 60.3216 138.182 60.4523 138.305 60.5599C138.428 60.6674 138.571 60.7497 138.726 60.8019C138.97 60.8963 139.237 60.9149 139.491 60.8554C139.746 60.7958 139.977 60.6609 140.153 60.4681C140.33 60.2754 140.444 60.0339 140.481 59.7752C140.518 59.5166 140.476 59.2528 140.361 59.0184C140.245 58.784 140.061 58.5899 139.833 58.4615C139.605 58.3332 139.344 58.2765 139.084 58.299C138.823 58.3214 138.575 58.4219 138.373 58.5874C138.17 58.7528 138.022 58.9754 137.949 59.2261Z" fill="#242993"/>
<path d="M136.093 64.2547C136.054 64.4728 136.079 64.6974 136.164 64.902C136.249 65.1066 136.391 65.2826 136.573 65.4091C136.755 65.5357 136.969 65.6074 137.191 65.6159C137.412 65.6243 137.632 65.5692 137.823 65.4569C138.014 65.3447 138.169 65.1801 138.27 64.9825C138.37 64.785 138.411 64.5629 138.389 64.3425C138.367 64.1221 138.282 63.9127 138.145 63.739C138.007 63.5653 137.822 63.4346 137.613 63.3625C137.293 63.2813 136.954 63.3295 136.669 63.4965C136.385 63.6636 136.178 63.936 136.093 64.2547Z" fill="#242993"/>
<path d="M154.47 17.4571C154.563 17.2091 154.607 16.9454 154.598 16.6808V15.2788C154.592 15.0428 154.627 14.8075 154.702 14.5836C154.797 14.3018 154.859 14.0103 154.888 13.7147C154.888 13.7147 160.583 17.851 164.168 18.0132C161.129 22.868 158.635 23.7138 158.635 23.7138C158.635 23.7138 157.591 23.4936 158.53 22.4277C159.47 21.3617 161.152 18.6737 159.69 17.7931C158.229 16.9125 155.839 18.7779 155.514 19.1835C155.398 19.3457 155.271 19.5426 155.155 19.728C155.067 19.8741 154.929 19.9823 154.766 20.0316C154.603 20.0808 154.427 20.0676 154.273 19.9945H154.157C154 19.9233 153.877 19.7947 153.812 19.6352C153.747 19.4756 153.746 19.2974 153.809 19.1371L154.47 17.4571Z" fill="#938496"/>
<path d="M163.271 178.207C161.681 178.38 160.079 178.435 158.481 178.369C156.161 178.242 149.734 178.763 149.734 180.756C149.734 182.749 152.808 185.843 156.88 186.619C160.951 187.395 166.31 186.874 168.99 187.175C171.669 187.476 173.746 185.345 172.934 183.062C172.122 180.779 163.271 178.207 163.271 178.207Z" fill="#162184"/>
<path d="M177.887 174.059C177.887 174.059 178.641 175.357 178.119 176.052C177.597 176.747 176.228 178.508 172.609 176.388C168.99 174.268 161.891 171.058 161.891 171.058C161.891 171.058 157.831 168.741 158.26 166.516C158.689 164.292 162.575 164.941 162.575 164.941L177.887 174.059Z" fill="#162184"/>
<path d="M155.675 138.524C155.675 138.524 156.116 154.328 159.155 160.399C162.194 166.47 162.229 176.863 162.774 178.856C163.208 180.246 163.985 181.504 165.033 182.517C166.081 183.529 167.366 184.262 168.771 184.649C172.251 185.542 173.04 183.595 172.993 182.332C172.947 181.069 172.17 179.065 172.297 177.698C172.436 176.838 172.665 175.995 172.982 175.183C172.982 175.183 176.96 176.55 177.888 173.932C177.766 173.531 177.681 173.12 177.633 172.704C177.633 172.298 179.164 162.427 179.408 161.21C179.695 157.401 179.504 153.571 178.839 149.809C178.039 146.333 179.234 139.196 179.234 139.196L167.112 136.6L155.675 138.524Z" fill="#242993"/>
<path d="M175.476 140.169C175.236 141.756 174.659 143.273 173.783 144.618C173.783 144.618 172.936 152.903 171.556 156.946C171.83 160.598 172.291 164.233 172.936 167.838C173.632 170.445 172.936 175.311 172.936 175.311C173.31 175.448 173.7 175.537 174.096 175.577C174.769 175.647 175.882 165.949 175.036 164.107C174.189 162.264 174.224 154.374 174.873 151.987C175.523 149.601 176.149 142.556 176.81 141.351C176.996 141.024 177.053 140.639 176.969 140.273C176.885 139.906 176.667 139.584 176.358 139.37L175.476 140.169Z" fill="#162184"/>
<path d="M170.905 76.7333C169.694 77.4763 168.675 78.492 167.927 79.6992C167.18 80.9063 166.726 82.2713 166.602 83.6851L169.502 83.3491C169.502 83.3491 169.107 78.1816 170.905 76.7333Z" fill="#162184"/>
<path d="M166.231 142.846C174.281 143.772 178.99 140.992 178.99 140.992C179.118 139.984 179.234 139.323 179.234 139.323L167.112 136.728L155.675 138.524C155.675 138.524 155.768 141.698 156.139 145.742C158.088 146.101 160.396 141.988 160.396 141.988L165.906 142.788C165.906 142.788 158.18 141.93 166.231 142.846Z" fill="#162184"/>
<path d="M157.231 138.906C157.231 138.906 174.201 146.773 184.061 135.43C184.336 135.103 184.502 134.698 184.536 134.272L184.768 131.387C184.799 131.015 184.901 130.653 185.07 130.321C185.436 129.606 185.592 128.803 185.522 128.003C185.232 124.666 184.432 115.455 184.293 112.86C184.119 109.674 187.402 97.0212 191.171 91.6103C194.941 86.1995 188.469 72.4116 188.469 72.4116C187.926 71.4339 187.082 70.6569 186.063 70.1956C185.043 69.7344 183.902 69.6136 182.808 69.851C182.808 69.851 186.288 72.6896 183.968 75.1576C181.648 77.6255 175.396 79.1897 175.396 79.1897C175.396 79.1897 163.796 83.7315 159.458 90.023C158.414 92.4218 157.741 94.9651 157.463 97.5658C157.022 101.818 156.755 111.91 156.453 113.265C156.152 114.621 154.899 123.832 154.922 124.261C154.945 124.69 157.231 138.906 157.231 138.906Z" fill="url(#paint2_linear_3844_495)"/>
<path d="M184.418 71.9248C184.594 71.6009 184.699 71.2436 184.727 70.8762C184.755 70.5088 184.705 70.1397 184.58 69.7929C183.992 69.702 183.394 69.702 182.806 69.7929C183.482 70.3871 184.031 71.1124 184.418 71.9248Z" fill="url(#paint3_linear_3844_495)"/>
<path d="M162.448 140.679C162.448 140.679 175.439 115.953 175.926 106.151C176.414 96.3491 158.527 123.832 158.527 123.832L157.239 138.895C158.926 139.623 160.668 140.22 162.448 140.679Z" fill="#242993"/>
<path d="M159.316 109.65C159.882 107.484 160.27 105.275 160.476 103.046C160.847 99.1414 162.575 92.6182 170.138 94.4837C180.787 97.0443 174.778 110.6 173.363 112.883C171.948 115.165 166.403 125.35 166.09 125.918C165.777 126.485 157.599 138.605 154.838 141.386C154.712 141.502 154.546 141.567 154.374 141.567C154.202 141.567 154.036 141.502 153.91 141.386C152.959 140.528 150.801 138.489 150.581 137.296C150.302 135.755 152.182 130.344 152.182 130.344C152.182 130.344 157.309 116.567 157.715 115.919C158.028 115.501 158.399 113.138 159.316 109.65Z" fill="#485DCE"/>
<path d="M171.054 77.081C170.831 76.4921 170.467 75.9667 169.994 75.5507C169.52 75.1346 168.953 74.8406 168.339 74.6942C166.321 74.3234 165.208 73.6746 165.068 72.9214C164.998 71.9846 164.835 71.057 164.581 70.1523C164.253 68.8622 164.055 67.5425 163.99 66.2129C163.99 66.1434 162.482 65.5525 162.458 64.8689C162.435 64.1853 163.444 61.8564 163.363 61.6594C162.935 60.7514 162.732 59.754 162.772 58.7512C162.968 57.2942 163.387 55.8758 164.013 54.5453C164.767 53.1666 169.963 44.7085 181.134 50.3047C192.305 55.901 182.468 64.6603 182.955 70.8359C182.955 70.8359 183.837 72.1915 181.795 74.1728C179.754 76.1541 174.255 76.1425 171.054 77.081Z" fill="#FCE8EE"/>
<path d="M181.759 74.1727C183.836 72.1915 182.919 70.8358 182.919 70.8358C182.872 69.9286 182.978 69.02 183.233 68.1478L178.662 68.5881C178.662 68.5881 172.584 62.2387 172.77 65.3786C172.955 68.5186 171.296 68.9125 171.296 68.9125L172.456 70.6968C172.758 71.1603 172.456 71.6469 172.178 72.0872C170.02 75.0417 165.555 73.7093 165.543 73.7093C166.364 74.2326 167.291 74.5689 168.257 74.6941C168.87 74.8405 169.438 75.1346 169.911 75.5506C170.384 75.9667 170.749 76.4921 170.972 77.0809C174.254 76.1424 179.671 76.154 181.759 74.1727Z" fill="#E2C8CF"/>
<path d="M163.797 51.1736C163.797 51.1736 162.799 53.4909 164.017 54.5453C165.235 55.5997 166.337 56.6772 166.337 56.6772L166.082 59.6086C166.06 60.0107 166.149 60.4112 166.337 60.7672L167.752 63.3626C168.028 63.8605 168.149 64.4293 168.1 64.9963L168.007 66.1549C167.993 66.3222 168.04 66.4891 168.141 66.6237C168.241 66.7584 168.388 66.8513 168.553 66.8848L168.97 66.966C169.148 66.9974 169.331 66.9598 169.482 66.8607C169.633 66.7616 169.741 66.6086 169.782 66.433L170.107 64.8109C170.107 64.8109 171.07 63.5595 172.798 65.2975L174.41 66.1085C174.635 66.227 174.831 66.3915 174.987 66.5912C175.143 66.7909 175.255 67.0213 175.315 67.2672C175.663 68.5649 176.475 71.1139 177.136 71.5889C178.088 72.2262 182.182 70.6157 182.797 69.793C183.412 68.9704 185.361 63.2351 186.497 60.5239C187.634 57.8127 187.913 50.687 179.468 48.1032C171.023 45.5195 165.189 48.7057 163.797 51.1736Z" fill="#AA9AAC"/>
<path d="M182.808 69.8393C183.423 69.0167 185.372 63.2814 186.509 60.5702C184.051 61.7722 181.385 62.492 178.656 62.6905C174.329 62.957 166.279 57.4882 166.279 57.4882L166.093 59.6317C166.072 60.0338 166.16 60.4343 166.348 60.7903L167.763 63.3857C168.039 63.8836 168.161 64.4523 168.111 65.0193L168.019 66.178C168.004 66.3453 168.051 66.5122 168.152 66.6468C168.252 66.7815 168.399 66.8744 168.564 66.9079L168.981 66.9891C169.159 67.0205 169.342 66.9829 169.493 66.8838C169.644 66.7847 169.752 66.6317 169.793 66.4561L170.118 64.834C170.118 64.834 171.081 63.5826 172.809 65.3206L175.129 66.4792C175.129 66.4792 176.173 70.9168 177.136 71.5541C178.099 72.1913 182.194 70.6619 182.808 69.8393Z" fill="#938496"/>
<path d="M182.922 70.1289C182.922 70.1289 185.984 72.3651 184.082 74.972C182.179 77.579 169.953 81.4025 169.315 82.0745C169.315 82.0745 169.223 77.9729 170.905 76.7332C170.905 76.7332 180.08 75.8294 181.716 73.7207C183.351 71.612 182.922 70.1289 182.922 70.1289Z" fill="#F0FFFF"/>
<path d="M182.92 70.1289C182.92 70.1289 183.314 71.612 181.69 73.7207C180.449 75.3081 174.893 76.2118 172.26 76.5594C173.256 77.4962 174.029 78.6444 174.522 79.9194C178.303 78.4364 182.932 76.4435 184.057 74.972C186.005 72.3651 182.92 70.1289 182.92 70.1289Z" fill="#C4E3FF"/>
<path d="M184.208 79.1085C184.208 79.1085 178.687 81.5184 176.019 82.5844C173.351 83.6503 170.428 85.1218 170.428 85.1218L169.546 84.1138L168.154 86.4311C165.981 87.4229 163.916 88.6383 161.995 90.0576C160.473 91.3854 159.176 92.9505 158.155 94.6922C158.155 94.6922 163.572 89.0149 167.621 87.5318L168.781 87.1147L169.546 85.2493L170.416 86.292C170.416 86.292 182.434 80.6726 184.208 79.1085Z" fill="#242993"/>
<path d="M163.665 155C163.569 154.642 163.376 154.317 163.108 154.061L144.549 137.84C144.05 137.4 143.528 137.655 143.389 138.408L140.083 155.034C140.014 155.418 140.035 155.811 140.143 156.185C140.252 156.559 140.446 156.903 140.709 157.189L155.951 170.537L155.035 175.021L159.942 173.596C160.075 173.522 160.188 173.417 160.271 173.29C160.353 173.163 160.404 173.017 160.417 172.866L163.735 156.228C163.807 155.819 163.784 155.398 163.665 155Z" fill="url(#paint4_linear_3844_495)"/>
<path d="M139.074 139.057L143.865 137.666H144.027C144.128 137.66 144.229 137.675 144.323 137.711C144.417 137.747 144.502 137.803 144.572 137.875L163.132 154.096C163.4 154.352 163.593 154.677 163.689 155.035L162.97 155.266L158.875 156.575L142.635 142.243L139.074 139.057Z" fill="url(#paint5_linear_3844_495)"/>
<path d="M135.874 158.592L154.433 174.813C154.932 175.241 155.454 174.986 155.593 174.245L158.899 157.607C158.972 157.225 158.953 156.832 158.844 156.46C158.735 156.087 158.54 155.746 158.273 155.463L139.713 139.242C139.215 138.802 138.693 139.057 138.553 139.81L135.248 156.437C135.176 156.82 135.195 157.214 135.304 157.589C135.413 157.963 135.608 158.306 135.874 158.592Z" fill="#242993"/>
<path d="M158.06 173.503L161.366 156.83C161.438 156.449 161.418 156.056 161.309 155.684C161.201 155.311 161.005 154.97 160.74 154.687L142.18 138.466C142.06 138.343 141.899 138.269 141.728 138.257C141.839 138.233 141.955 138.237 142.065 138.269C142.174 138.301 142.274 138.361 142.354 138.443L160.914 154.664C161.181 154.948 161.378 155.292 161.488 155.666C161.599 156.04 161.621 156.435 161.552 156.819L158.234 173.445C158.141 173.967 157.874 174.268 157.538 174.245C157.782 174.21 157.979 173.932 158.06 173.503Z" fill="#162184"/>
<path d="M153.04 147.862L154.095 147.503C154.307 147.436 154.534 147.436 154.745 147.503H154.826C154.919 147.503 154.965 147.631 154.942 147.77V147.932L151.961 148.94V148.778C151.999 148.621 152.089 148.482 152.216 148.384L152.321 148.303C152.529 148.111 152.774 147.961 153.04 147.862Z" fill="#162184"/>
<path d="M153.235 150.064L151.924 148.917L154.917 147.538L156.193 148.662L153.235 150.064Z" fill="#162184"/>
<path d="M154.343 148.998L155.398 148.639C155.61 148.577 155.836 148.577 156.048 148.639H156.129C156.18 148.659 156.221 148.698 156.244 148.747C156.268 148.797 156.272 148.853 156.257 148.905V149.067L153.275 150.087V149.925C153.308 149.769 153.394 149.63 153.519 149.531L153.623 149.45C153.832 149.254 154.076 149.101 154.343 148.998Z" fill="url(#paint6_linear_3844_495)"/>
<path d="M154.92 149.485L155.071 148.755L154.978 148.789L154.827 149.519L154.92 149.485Z" fill="#162184"/>
<path d="M155.069 148.755L153.724 147.619L153.643 147.654L154.977 148.789L155.069 148.755Z" fill="#162184"/>
<path d="M147.127 142.683L148.182 142.324C148.393 142.256 148.621 142.256 148.832 142.324H148.913C149.018 142.324 149.064 142.452 149.029 142.579V142.741L146.06 143.761V143.599C146.102 143.444 146.191 143.307 146.315 143.205L146.419 143.124C146.625 142.934 146.865 142.784 147.127 142.683Z" fill="#162184"/>
<path d="M147.324 144.885L146.024 143.749L149.006 142.371L150.293 143.494L147.324 144.885Z" fill="#162184"/>
<path d="M148.428 143.83L149.495 143.471C149.703 143.412 149.924 143.412 150.133 143.471H150.214C150.318 143.471 150.365 143.599 150.341 143.738V143.9L147.36 144.908V144.746C147.397 144.595 147.482 144.46 147.604 144.363L147.708 144.271C147.922 144.085 148.165 143.936 148.428 143.83Z" fill="url(#paint7_linear_3844_495)"/>
<path d="M149.002 144.317L149.153 143.587L149.06 143.61L148.909 144.352L149.002 144.317Z" fill="#162184"/>
<path d="M149.159 143.587L147.814 142.452L147.732 142.475L149.066 143.61L149.159 143.587Z" fill="#162184"/>
<path d="M155.895 145.244L155.28 148.349L154.41 147.584L155.013 144.56C155.047 144.316 155.022 144.067 154.942 143.833C154.861 143.6 154.727 143.388 154.549 143.216L150.756 139.891C150.408 139.59 150.06 139.706 149.979 140.146L149.376 143.182L148.494 142.417L149.121 139.3C149.318 138.315 150.083 138.06 150.837 138.721L154.886 142.278C155.275 142.659 155.568 143.126 155.744 143.641C155.919 144.156 155.971 144.705 155.895 145.244Z" fill="url(#paint8_linear_3844_495)"/>
<path d="M149.352 139.578H151.022L155.523 143.946V146.402L155.267 148.395L154.165 148.766L154.328 146.263L154.409 144.537L153.516 143.205C153.516 143.205 151.811 141.768 151.799 141.722C151.787 141.675 149.352 139.578 149.352 139.578Z" fill="url(#paint9_linear_3844_495)"/>
<path d="M148.273 143.587L149.375 143.216L149.816 140.98L148.784 140.969L148.482 140.98L148.273 143.587Z" fill="url(#paint10_linear_3844_495)"/>
<path d="M148.646 138.813L149.805 138.408C149.805 138.408 149.469 138.941 149.458 138.941L149.063 139.022L148.646 138.813Z" fill="url(#paint11_linear_3844_495)"/>
<path d="M154.806 145.649L154.179 148.755L153.31 147.99L153.913 144.966C153.946 144.721 153.922 144.472 153.841 144.239C153.761 144.005 153.626 143.794 153.449 143.622L149.656 140.297C149.308 139.995 148.96 140.111 148.878 140.551L148.275 143.587L147.405 142.822L148.02 139.706C148.024 139.508 148.089 139.316 148.206 139.156C148.323 138.996 148.487 138.876 148.674 138.813C148.862 138.75 149.065 138.746 149.255 138.802C149.445 138.858 149.614 138.971 149.737 139.126L153.797 142.683C154.186 143.064 154.48 143.531 154.655 144.046C154.83 144.562 154.882 145.111 154.806 145.649Z" fill="#162184"/>
<path d="M150.905 137.214C150.5 138.475 150.239 139.777 150.128 141.096C150.669 142.323 151.626 143.32 152.831 143.911C153.828 144.271 153.492 143.17 153.77 142.521C153.976 141.832 154.097 141.12 154.13 140.401L150.905 137.214Z" fill="#FCE8EE"/>
<path d="M154.13 140.401L150.905 137.214C150.905 137.214 150.72 137.852 150.522 138.616C151.255 140.117 152.428 141.358 153.886 142.173C154.015 141.59 154.096 140.997 154.13 140.401Z" fill="#E2C8CF"/>
<path d="M150.628 137.423C150.628 137.423 151.602 140.899 154.618 141.501L153.922 137.713C153.922 137.713 151.382 136.832 151.301 136.82C151.22 136.809 150.628 137.423 150.628 137.423Z" fill="#485DCE"/>
<defs>
<linearGradient id="paint0_linear_3844_495" x1="0.0341797" y1="115.622" x2="182.733" y2="130.781" gradientUnits="userSpaceOnUse">
<stop stop-color="#FF5C65"/>
<stop offset="0.53125" stop-color="#FD008B"/>
<stop offset="1" stop-color="#6500FC"/>
</linearGradient>
<linearGradient id="paint1_linear_3844_495" x1="115.143" y1="18.3378" x2="175.068" y2="21.2736" gradientUnits="userSpaceOnUse">
<stop stop-color="#FF5C65"/>
<stop offset="0.53125" stop-color="#FD008B"/>
<stop offset="1" stop-color="#6500FC"/>
</linearGradient>
<linearGradient id="paint2_linear_3844_495" x1="154.922" y1="69.7323" x2="194.551" y2="70.9674" gradientUnits="userSpaceOnUse">
<stop stop-color="#FF5C65"/>
<stop offset="0.53125" stop-color="#FD008B"/>
<stop offset="1" stop-color="#6500FC"/>
</linearGradient>
<linearGradient id="paint3_linear_3844_495" x1="182.817" y1="70.8357" x2="184.731" y2="70.8357" gradientUnits="userSpaceOnUse">
<stop stop-color="#5778FF"/>
<stop offset="0.07" stop-color="#5489FF"/>
<stop offset="0.28" stop-color="#4EB3FF"/>
<stop offset="0.48" stop-color="#49D4FF"/>
<stop offset="0.67" stop-color="#45ECFF"/>
<stop offset="0.85" stop-color="#43FAFF"/>
<stop offset="1" stop-color="#42FFFF"/>
</linearGradient>
<linearGradient id="paint4_linear_3844_495" x1="140.043" y1="137.624" x2="165.159" y2="138.578" gradientUnits="userSpaceOnUse">
<stop stop-color="#FF5C65"/>
<stop offset="0.53125" stop-color="#FD008B"/>
<stop offset="1" stop-color="#6500FC"/>
</linearGradient>
<linearGradient id="paint5_linear_3844_495" x1="139.074" y1="137.665" x2="165.004" y2="139.684" gradientUnits="userSpaceOnUse">
<stop stop-color="#FF5C65"/>
<stop offset="0.53125" stop-color="#FD008B"/>
<stop offset="1" stop-color="#6500FC"/>
</linearGradient>
<linearGradient id="paint6_linear_3844_495" x1="153.275" y1="148.592" x2="156.4" y2="148.966" gradientUnits="userSpaceOnUse">
<stop stop-color="#FF5C65"/>
<stop offset="0.53125" stop-color="#FD008B"/>
<stop offset="1" stop-color="#6500FC"/>
</linearGradient>
<linearGradient id="paint7_linear_3844_495" x1="147.36" y1="143.427" x2="150.481" y2="143.803" gradientUnits="userSpaceOnUse">
<stop stop-color="#FF5C65"/>
<stop offset="0.53125" stop-color="#FD008B"/>
<stop offset="1" stop-color="#6500FC"/>
</linearGradient>
<linearGradient id="paint8_linear_3844_495" x1="148.494" y1="138.354" x2="156.358" y2="138.704" gradientUnits="userSpaceOnUse">
<stop stop-color="#FF5C65"/>
<stop offset="0.53125" stop-color="#FD008B"/>
<stop offset="1" stop-color="#6500FC"/>
</linearGradient>
<linearGradient id="paint9_linear_3844_495" x1="149.352" y1="139.578" x2="155.881" y2="139.84" gradientUnits="userSpaceOnUse">
<stop stop-color="#FF5C65"/>
<stop offset="0.53125" stop-color="#FD008B"/>
<stop offset="1" stop-color="#6500FC"/>
</linearGradient>
<linearGradient id="paint10_linear_3844_495" x1="148.273" y1="140.969" x2="149.906" y2="141.026" gradientUnits="userSpaceOnUse">
<stop stop-color="#FF5C65"/>
<stop offset="0.53125" stop-color="#FD008B"/>
<stop offset="1" stop-color="#6500FC"/>
</linearGradient>
<linearGradient id="paint11_linear_3844_495" x1="148.646" y1="138.408" x2="149.859" y2="138.545" gradientUnits="userSpaceOnUse">
<stop stop-color="#FF5C65"/>
<stop offset="0.53125" stop-color="#FD008B"/>
<stop offset="1" stop-color="#6500FC"/>
</linearGradient>
</defs>
</svg>
