<svg width="50" height="50" viewBox="0 0 50 50" fill="none" xmlns="http://www.w3.org/2000/svg">
<g clip-path="url(#clip0_2088_38)">
<path d="M38.2812 42.1875H11.7167C5.25615 42.1875 0 36.9313 0 30.4708V14.4531C0 7.99141 5.25703 2.73438 11.7188 2.73438H24.8047C25.8834 2.73438 26.7578 3.60879 26.7578 4.6875C26.7578 5.76621 25.8834 6.64062 24.8047 6.64062H11.7188C7.41094 6.64062 3.90625 10.1453 3.90625 14.4531V30.4708C3.90625 34.7774 7.41006 38.2812 11.7167 38.2812H38.2812C42.5891 38.2812 46.0938 34.7766 46.0938 30.4688V23.3398C46.0938 22.2611 46.9682 21.3867 48.0469 21.3867C49.1256 21.3867 50 22.2611 50 23.3398V30.4688C50 36.9306 44.743 42.1875 38.2812 42.1875ZM25.4883 16.2109C25.4883 12.8186 22.7283 10.0586 19.3359 10.0586C15.9436 10.0586 13.1836 12.8186 13.1836 16.2109C13.1836 19.6033 15.9436 22.3633 19.3359 22.3633C22.7283 22.3633 25.4883 19.6033 25.4883 16.2109ZM21.582 16.2109C21.582 17.4494 20.5744 18.457 19.3359 18.457C18.0975 18.457 17.0898 17.4494 17.0898 16.2109C17.0898 14.9725 18.0975 13.9648 19.3359 13.9648C20.5744 13.9648 21.582 14.9725 21.582 16.2109ZM36.3281 48.0469C36.3281 46.9682 35.4537 46.0938 34.375 46.0938H15.625C14.5463 46.0938 13.6719 46.9682 13.6719 48.0469C13.6719 49.1256 14.5463 50 15.625 50H34.375C35.4537 50 36.3281 49.1256 36.3281 48.0469Z" fill="url(#paint0_linear_2088_38)"/>
<path d="M25.4883 34.2773C24.4096 34.2773 23.5352 33.4029 23.5352 32.3242C23.5352 30.1703 21.765 28.418 19.5892 28.418H18.4967C16.3209 28.418 14.5508 30.1703 14.5508 32.3242C14.5508 33.4029 13.6764 34.2773 12.5977 34.2773C11.5189 34.2773 10.6445 33.4029 10.6445 32.3242C10.6445 28.0164 14.167 24.5117 18.4968 24.5117H19.5893C23.9189 24.5117 27.4414 28.0164 27.4414 32.3242C27.4414 33.4029 26.567 34.2773 25.4883 34.2773ZM34.2056 19.3343C34.5008 19.3343 34.7888 19.4194 35.0755 19.535C37.9182 20.6806 39.6607 20.6055 39.6641 20.6055C42.4034 20.6055 44.9838 19.5506 46.9303 17.6348C48.8832 15.7127 49.9732 13.1445 49.9996 10.4035C50.0263 7.62227 48.9684 5.00752 47.0206 3.04102C45.0782 1.07998 42.4774 0 39.6973 0C36.9352 0 34.3379 1.08643 32.3839 3.05937C30.4323 5.02969 29.3711 7.63408 29.3949 10.3935L29.3945 18.6522C29.3945 19.4422 29.8704 20.1544 30.6002 20.4568C30.8419 20.5569 31.0956 20.6056 31.3473 20.6056C32.6397 20.6056 33.0504 19.3343 34.2056 19.3343ZM39.656 16.6992C38.6529 16.6992 37.6977 16.4768 36.8165 16.0381C35.7007 15.4825 34.4724 15.3125 33.3009 15.5005L33.3011 10.3849C33.3011 10.3786 33.3011 10.3724 33.301 10.366C33.2846 8.65322 33.9444 7.03457 35.1592 5.8082C36.374 4.58174 37.9856 3.90625 39.6973 3.90625C41.427 3.90625 43.0421 4.5752 44.2451 5.78984C45.4536 7.00996 46.1101 8.63516 46.0935 10.3659C46.0599 13.8589 43.1761 16.6994 39.6621 16.6992C39.6612 16.6992 39.66 16.6992 39.6591 16.6992C39.658 16.6992 39.657 16.6992 39.656 16.6992Z" fill="white"/>
</g>
<defs>
<linearGradient id="paint0_linear_2088_38" x1="0" y1="2.73438" x2="52.7793" y2="6.07385" gradientUnits="userSpaceOnUse">
<stop stop-color="#FF5C65"/>
<stop offset="0.53125" stop-color="#FD008B"/>
<stop offset="1" stop-color="#6500FC"/>
</linearGradient>
<clipPath id="clip0_2088_38">
<rect width="50" height="50" fill="white"/>
</clipPath>
</defs>
</svg>
