<svg width="436" height="468" viewBox="0 0 436 468" fill="none" xmlns="http://www.w3.org/2000/svg">
<mask id="mask0_2109_43" style="mask-type:alpha" maskUnits="userSpaceOnUse" x="0" y="0" width="436" height="468">
<rect opacity="0.05" width="435.583" height="467.949" transform="matrix(1 8.18188e-08 9.34106e-08 -1 0 467.949)" fill="#D9D9D9"/>
</mask>
<g mask="url(#mask0_2109_43)">
<path d="M479.354 926.771L413.992 313.318L-72.9967 -57.84" stroke="white" stroke-width="2" stroke-miterlimit="10"/>
<path d="M466.591 934.056L401.221 320.6L-85.1286 -50.0707" stroke="white" stroke-width="1.98" stroke-miterlimit="10"/>
<path d="M453.819 941.338L388.457 327.884L-97.2689 -42.3033" stroke="white" stroke-width="1.96" stroke-miterlimit="10"/>
<path d="M441.049 948.618L375.687 335.164L-109.4 -34.5357" stroke="white" stroke-width="1.95" stroke-miterlimit="10"/>
<path d="M428.285 955.9L362.915 342.445L-121.531 -26.7753" stroke="white" stroke-width="1.93" stroke-miterlimit="10"/>
<path d="M415.515 963.185L350.152 349.731L-133.671 -19.006" stroke="white" stroke-width="1.91" stroke-miterlimit="10"/>
<path d="M402.743 970.465L337.381 357.011L-145.804 -11.2385" stroke="white" stroke-width="1.89" stroke-miterlimit="10"/>
<path d="M389.97 977.753L324.609 364.292L-157.942 -3.47915" stroke="white" stroke-width="1.87" stroke-miterlimit="10"/>
<path d="M377.207 985.039L311.839 371.577L-170.081 4.2904" stroke="white" stroke-width="1.86" stroke-miterlimit="10"/>
<path d="M364.435 992.319L299.073 378.866L-182.214 12.0578" stroke="white" stroke-width="1.84" stroke-miterlimit="10"/>
<path d="M351.665 999.6L286.303 386.146L-194.353 19.8232" stroke="white" stroke-width="1.82" stroke-miterlimit="10"/>
<path d="M338.901 1006.88L273.531 393.429L-206.484 27.5867" stroke="white" stroke-width="1.8" stroke-miterlimit="10"/>
<path d="M326.13 1014.17L260.768 400.712L-218.616 35.355" stroke="white" stroke-width="1.79" stroke-miterlimit="10"/>
<path d="M313.359 1021.45L247.996 407.993L-230.756 43.1204" stroke="white" stroke-width="1.77" stroke-miterlimit="10"/>
<path d="M300.589 1028.73L235.226 415.275L-242.888 50.8897" stroke="white" stroke-width="1.75" stroke-miterlimit="10"/>
<path d="M287.823 1036.02L222.455 422.557L-255.025 58.6503" stroke="white" stroke-width="1.73" stroke-miterlimit="10"/>
<path d="M275.052 1043.3L209.691 429.839L-267.158 66.4176" stroke="white" stroke-width="1.71" stroke-miterlimit="10"/>
<path d="M262.281 1050.58L196.921 437.119L-279.298 74.1831" stroke="white" stroke-width="1.7" stroke-miterlimit="10"/>
<path d="M249.517 1057.87L184.147 444.411L-291.429 81.9475" stroke="white" stroke-width="1.68" stroke-miterlimit="10"/>
<path d="M236.747 1065.15L171.385 451.694L-303.567 89.714" stroke="white" stroke-width="1.66" stroke-miterlimit="10"/>
<path d="M223.975 1072.43L158.613 458.973L-315.701 97.4803" stroke="white" stroke-width="1.64" stroke-miterlimit="10"/>
<path d="M211.205 1079.71L145.842 466.257L-327.84 105.25" stroke="white" stroke-width="1.62" stroke-miterlimit="10"/>
<path d="M198.44 1086.99L133.078 473.54L-339.971 113.011" stroke="white" stroke-width="1.61" stroke-miterlimit="10"/>
<path d="M185.67 1094.27L120.308 480.821L-352.11 120.777" stroke="white" stroke-width="1.59" stroke-miterlimit="10"/>
<path d="M172.897 1101.56L107.537 488.102L-364.242 128.545" stroke="white" stroke-width="1.57" stroke-miterlimit="10"/>
<path d="M160.133 1108.85L94.7654 495.385L-376.383 136.313" stroke="white" stroke-width="1.55" stroke-miterlimit="10"/>
<path d="M147.363 1116.13L82.0023 502.667L-388.513 144.074" stroke="white" stroke-width="1.54" stroke-miterlimit="10"/>
<path d="M134.593 1123.41L69.2302 509.955L-400.652 151.84" stroke="white" stroke-width="1.52" stroke-miterlimit="10"/>
<path d="M121.821 1130.69L56.4588 517.239L-412.785 159.611" stroke="white" stroke-width="1.5" stroke-miterlimit="10"/>
<path d="M109.058 1137.97L43.6882 524.519L-424.922 167.369" stroke="white" stroke-width="1.48" stroke-miterlimit="10"/>
<path d="M96.2866 1145.25L30.9241 531.801L-437.055 175.137" stroke="white" stroke-width="1.46" stroke-miterlimit="10"/>
<path d="M83.5146 1152.54L18.1522 539.085L-449.196 182.906" stroke="white" stroke-width="1.45" stroke-miterlimit="10"/>
<path d="M70.7524 1159.82L5.38257 546.367L-461.327 190.674" stroke="white" stroke-width="1.43" stroke-miterlimit="10"/>
<path d="M57.979 1167.11L-7.38148 553.649L-473.465 198.433" stroke="white" stroke-width="1.41" stroke-miterlimit="10"/>
<path d="M45.2085 1174.39L-20.154 560.936L-485.597 206.2" stroke="white" stroke-width="1.39" stroke-miterlimit="10"/>
<path d="M32.437 1181.67L-32.9254 568.22L-497.737 213.97" stroke="white" stroke-width="1.38" stroke-miterlimit="10"/>
<path d="M19.6743 1188.96L-45.6956 575.501L-509.869 221.737" stroke="white" stroke-width="1.36" stroke-miterlimit="10"/>
<path d="M6.90283 1196.24L-58.4597 582.783L-522.007 229.496" stroke="white" stroke-width="1.34" stroke-miterlimit="10"/>
<path d="M-5.86768 1203.52L-71.2301 590.067L-534.139 237.267" stroke="white" stroke-width="1.32" stroke-miterlimit="10"/>
<path d="M-18.6318 1210.8L-84.0017 597.347L-546.279 245.033" stroke="white" stroke-width="1.3" stroke-miterlimit="10"/>
<path d="M-31.4019 1218.08L-96.7644 604.629L-558.409 252.793" stroke="white" stroke-width="1.29" stroke-miterlimit="10"/>
<path d="M-44.1753 1225.37L-109.536 611.911L-570.549 260.56" stroke="white" stroke-width="1.27" stroke-miterlimit="10"/>
<path d="M-56.939 1232.66L-122.307 619.195L-582.681 268.331" stroke="white" stroke-width="1.25" stroke-miterlimit="10"/>
<path d="M-69.7095 1239.94L-135.072 626.484L-594.819 276.089" stroke="white" stroke-width="1.23" stroke-miterlimit="10"/>
<path d="M-82.4814 1247.22L-147.844 633.764L-606.952 283.857" stroke="white" stroke-width="1.21" stroke-miterlimit="10"/>
<path d="M-95.2515 1254.5L-160.614 641.048L-619.091 291.626" stroke="white" stroke-width="1.2" stroke-miterlimit="10"/>
<path d="M-108.016 1261.78L-173.385 648.329L-631.224 299.393" stroke="white" stroke-width="1.18" stroke-miterlimit="10"/>
<path d="M-120.786 1269.06L-186.149 655.611L-643.361 307.152" stroke="white" stroke-width="1.16" stroke-miterlimit="10"/>
<path d="M-133.558 1276.35L-198.92 662.895L-655.494 314.923" stroke="white" stroke-width="1.14" stroke-miterlimit="10"/>
<path d="M-146.323 1283.64L-211.691 670.176L-667.627 322.691" stroke="white" stroke-width="1.13" stroke-miterlimit="10"/>
<path d="M-159.093 1290.92L-224.461 677.456L-679.765 330.457" stroke="white" stroke-width="1.11" stroke-miterlimit="10"/>
<path d="M-171.865 1298.2L-237.226 684.74L-691.897 338.219" stroke="white" stroke-width="1.09" stroke-miterlimit="10"/>
<path d="M-184.635 1305.48L-249.998 692.03L-704.036 345.987" stroke="white" stroke-width="1.07" stroke-miterlimit="10"/>
<path d="M-197.399 1312.77L-262.769 699.31L-716.169 353.754" stroke="white" stroke-width="1.05" stroke-miterlimit="10"/>
<path d="M-210.169 1320.05L-275.532 706.592L-728.305 361.513" stroke="white" stroke-width="1.04" stroke-miterlimit="10"/>
</g>
</svg>
