<svg width="436" height="468" viewBox="0 0 436 468" fill="none" xmlns="http://www.w3.org/2000/svg">
<mask id="mask0_2109_103" style="mask-type:alpha" maskUnits="userSpaceOnUse" x="0" y="0" width="436" height="468">
<rect opacity="0.05" width="435.583" height="467.949" transform="matrix(-1 1.74846e-07 1.74846e-07 1 436 0)" fill="#D9D9D9"/>
</mask>
<g mask="url(#mask0_2109_103)">
<path d="M-43.3545 -458.826L22.0082 154.627L508.997 525.785" stroke="white" stroke-width="2" stroke-miterlimit="10"/>
<path d="M-30.5918 -466.11L34.7783 147.346L521.128 518.016" stroke="white" stroke-width="1.98" stroke-miterlimit="10"/>
<path d="M-17.8198 -473.39L47.5428 140.064L533.269 510.251" stroke="white" stroke-width="1.96" stroke-miterlimit="10"/>
<path d="M-5.0498 -480.672L60.3129 132.781L545.4 502.481" stroke="white" stroke-width="1.95" stroke-miterlimit="10"/>
<path d="M7.71436 -487.957L73.0844 125.498L557.531 494.718" stroke="white" stroke-width="1.93" stroke-miterlimit="10"/>
<path d="M20.4849 -495.237L85.8475 118.216L569.671 486.953" stroke="white" stroke-width="1.91" stroke-miterlimit="10"/>
<path d="M33.2563 -502.52L98.619 110.934L581.803 479.184" stroke="white" stroke-width="1.89" stroke-miterlimit="10"/>
<path d="M46.0298 -509.808L111.39 103.653L593.942 471.424" stroke="white" stroke-width="1.87" stroke-miterlimit="10"/>
<path d="M58.7925 -517.092L124.161 96.3706L606.081 463.657" stroke="white" stroke-width="1.86" stroke-miterlimit="10"/>
<path d="M71.564 -524.372L136.927 89.0816L618.213 455.889" stroke="white" stroke-width="1.84" stroke-miterlimit="10"/>
<path d="M84.334 -531.654L149.697 81.7994L630.352 448.122" stroke="white" stroke-width="1.82" stroke-miterlimit="10"/>
<path d="M97.0986 -538.938L162.469 74.5175L642.484 440.36" stroke="white" stroke-width="1.8" stroke-miterlimit="10"/>
<path d="M109.869 -546.219L175.231 67.2349L654.615 432.592" stroke="white" stroke-width="1.79" stroke-miterlimit="10"/>
<path d="M122.64 -553.501L188.003 59.9527L666.755 424.825" stroke="white" stroke-width="1.77" stroke-miterlimit="10"/>
<path d="M135.411 -560.783L200.773 52.6705L678.887 417.055" stroke="white" stroke-width="1.75" stroke-miterlimit="10"/>
<path d="M148.176 -568.073L213.544 45.3892L691.025 409.296" stroke="white" stroke-width="1.73" stroke-miterlimit="10"/>
<path d="M160.948 -575.354L226.308 38.1062L703.158 401.528" stroke="white" stroke-width="1.71" stroke-miterlimit="10"/>
<path d="M173.718 -582.636L239.079 30.8248L715.298 393.761" stroke="white" stroke-width="1.7" stroke-miterlimit="10"/>
<path d="M186.482 -589.919L251.852 23.536L727.428 385.999" stroke="white" stroke-width="1.68" stroke-miterlimit="10"/>
<path d="M199.252 -597.201L264.615 16.2524L739.567 378.232" stroke="white" stroke-width="1.66" stroke-miterlimit="10"/>
<path d="M212.024 -604.482L277.387 8.97174L751.701 370.464" stroke="white" stroke-width="1.64" stroke-miterlimit="10"/>
<path d="M224.794 -611.764L290.157 1.68947L763.839 362.697" stroke="white" stroke-width="1.62" stroke-miterlimit="10"/>
<path d="M237.559 -619.047L302.921 -5.59312L775.97 354.936" stroke="white" stroke-width="1.61" stroke-miterlimit="10"/>
<path d="M250.329 -626.329L315.692 -12.8754L788.11 347.168" stroke="white" stroke-width="1.59" stroke-miterlimit="10"/>
<path d="M263.102 -633.617L328.463 -20.156L800.242 339.401" stroke="white" stroke-width="1.57" stroke-miterlimit="10"/>
<path d="M275.866 -640.901L341.234 -27.4389L812.382 331.633" stroke="white" stroke-width="1.55" stroke-miterlimit="10"/>
<path d="M288.637 -648.183L353.997 -34.7221L824.513 323.871" stroke="white" stroke-width="1.54" stroke-miterlimit="10"/>
<path d="M301.407 -655.464L366.769 -42.0102L836.651 316.105" stroke="white" stroke-width="1.52" stroke-miterlimit="10"/>
<path d="M314.178 -662.745L379.541 -49.2915L848.784 308.336" stroke="white" stroke-width="1.5" stroke-miterlimit="10"/>
<path d="M326.941 -670.03L392.311 -56.5743L860.921 300.575" stroke="white" stroke-width="1.48" stroke-miterlimit="10"/>
<path d="M339.713 -677.31L405.076 -63.8564L873.055 292.808" stroke="white" stroke-width="1.46" stroke-miterlimit="10"/>
<path d="M352.484 -684.592L417.847 -71.1385L885.195 285.041" stroke="white" stroke-width="1.45" stroke-miterlimit="10"/>
<path d="M365.247 -691.875L430.617 -78.4195L897.326 277.273" stroke="white" stroke-width="1.43" stroke-miterlimit="10"/>
<path d="M378.021 -699.164L443.381 -85.7035L909.465 269.512" stroke="white" stroke-width="1.41" stroke-miterlimit="10"/>
<path d="M390.791 -706.445L456.154 -92.9916L921.597 261.744" stroke="white" stroke-width="1.39" stroke-miterlimit="10"/>
<path d="M403.562 -713.727L468.925 -100.273L933.737 253.977" stroke="white" stroke-width="1.38" stroke-miterlimit="10"/>
<path d="M416.325 -721.011L481.695 -107.555L945.868 246.208" stroke="white" stroke-width="1.36" stroke-miterlimit="10"/>
<path d="M429.097 -728.292L494.459 -114.838L958.007 238.448" stroke="white" stroke-width="1.34" stroke-miterlimit="10"/>
<path d="M441.867 -735.574L507.23 -122.12L970.139 230.68" stroke="white" stroke-width="1.32" stroke-miterlimit="10"/>
<path d="M454.632 -742.858L520.002 -129.402L982.279 222.912" stroke="white" stroke-width="1.3" stroke-miterlimit="10"/>
<path d="M467.401 -750.138L532.764 -136.684L994.408 215.152" stroke="white" stroke-width="1.29" stroke-miterlimit="10"/>
<path d="M480.175 -757.428L545.535 -143.968L1006.55 207.383" stroke="white" stroke-width="1.27" stroke-miterlimit="10"/>
<path d="M492.939 -764.71L558.308 -151.248L1018.68 199.616" stroke="white" stroke-width="1.25" stroke-miterlimit="10"/>
<path d="M505.709 -771.992L571.072 -158.539L1030.82 191.856" stroke="white" stroke-width="1.23" stroke-miterlimit="10"/>
<path d="M518.481 -779.274L583.844 -165.82L1042.95 184.087" stroke="white" stroke-width="1.21" stroke-miterlimit="10"/>
<path d="M531.251 -786.555L596.614 -173.101L1055.09 176.321" stroke="white" stroke-width="1.2" stroke-miterlimit="10"/>
<path d="M544.016 -793.839L609.386 -180.384L1067.22 168.551" stroke="white" stroke-width="1.18" stroke-miterlimit="10"/>
<path d="M556.785 -801.12L622.148 -187.666L1079.36 160.793" stroke="white" stroke-width="1.16" stroke-miterlimit="10"/>
<path d="M569.558 -808.402L634.92 -194.948L1091.49 153.023" stroke="white" stroke-width="1.14" stroke-miterlimit="10"/>
<path d="M582.323 -815.692L647.691 -202.229L1103.63 145.255" stroke="white" stroke-width="1.13" stroke-miterlimit="10"/>
<path d="M595.094 -822.973L660.462 -209.511L1115.77 137.489" stroke="white" stroke-width="1.11" stroke-miterlimit="10"/>
<path d="M607.865 -830.256L673.226 -216.796L1127.9 129.725" stroke="white" stroke-width="1.09" stroke-miterlimit="10"/>
<path d="M620.635 -837.536L685.997 -224.082L1140.04 121.961" stroke="white" stroke-width="1.07" stroke-miterlimit="10"/>
<path d="M633.399 -844.82L698.769 -231.365L1152.17 114.191" stroke="white" stroke-width="1.05" stroke-miterlimit="10"/>
<path d="M646.17 -852.103L711.533 -238.649L1164.31 106.43" stroke="white" stroke-width="1.04" stroke-miterlimit="10"/>
</g>
</svg>
