<svg width="50" height="50" viewBox="0 0 50 50" fill="none" xmlns="http://www.w3.org/2000/svg">
<g clip-path="url(#clip0_2088_43)">
<path d="M40.2344 0H9.76562C4.38086 0 0 4.38086 0 9.76562V40.2344C0 45.6191 4.38086 50 9.76562 50H40.2344C45.6192 50 50 45.6191 50 40.2344V9.76562C50 4.38086 45.6192 0 40.2344 0ZM46.0938 40.2344C46.0938 43.4652 43.4652 46.0938 40.2344 46.0938H9.76562C6.53477 46.0938 3.90625 43.4652 3.90625 40.2344V9.76562C3.90625 6.53477 6.53477 3.90625 9.76562 3.90625H40.2344C43.4652 3.90625 46.0938 6.53477 46.0938 9.76562V40.2344Z" fill="url(#paint0_linear_2088_43)"/>
<path d="M25 15.2344C17.4613 15.2344 11.3281 21.3676 11.3281 28.9062C11.3281 36.4449 17.4613 42.5781 25 42.5781C32.5387 42.5781 38.6719 36.4449 38.6719 28.9062C38.6719 21.3676 32.5387 15.2344 25 15.2344ZM34.5692 26.9531H30.8088C30.6855 24.5845 30.3343 22.2905 29.737 20.3691C32.1873 21.7341 33.9925 24.1228 34.5692 26.9531ZM23.103 30.8594H26.8969C26.6483 35.0976 25.6302 37.694 24.9999 38.4946C24.3697 37.694 23.3516 35.0976 23.103 30.8594ZM23.103 26.9531C23.3516 22.7149 24.3697 20.1185 25 19.3179C25.6303 20.1185 26.6484 22.7149 26.897 26.9531H23.103ZM20.263 20.3691C19.6657 22.2905 19.3144 24.5845 19.1912 26.9531H15.4309C16.0075 24.1228 17.8128 21.7342 20.263 20.3691ZM15.4308 30.8594H19.1911C19.3144 33.228 19.6656 35.522 20.2629 37.4434C17.8128 36.0783 16.0075 33.6897 15.4308 30.8594ZM29.737 37.4434C30.3343 35.522 30.6856 33.228 30.8088 30.8594H34.5692C33.9925 33.6897 32.1873 36.0784 29.737 37.4434Z" fill="white"/>
<path d="M40.2344 7.8125H28.9062C27.8275 7.8125 26.9531 8.68691 26.9531 9.76562C26.9531 10.8443 27.8275 11.7188 28.9062 11.7188H40.2344C41.3131 11.7188 42.1875 10.8443 42.1875 9.76562C42.1875 8.68691 41.3131 7.8125 40.2344 7.8125Z" fill="url(#paint1_linear_2088_43)"/>
<path d="M9.76562 11.7188C10.8443 11.7188 11.7188 10.8443 11.7188 9.76562C11.7188 8.68694 10.8443 7.8125 9.76562 7.8125C8.68694 7.8125 7.8125 8.68694 7.8125 9.76562C7.8125 10.8443 8.68694 11.7188 9.76562 11.7188Z" fill="white"/>
<path d="M17.5781 11.7188C18.6568 11.7188 19.5312 10.8443 19.5312 9.76562C19.5312 8.68694 18.6568 7.8125 17.5781 7.8125C16.4994 7.8125 15.625 8.68694 15.625 9.76562C15.625 10.8443 16.4994 11.7188 17.5781 11.7188Z" fill="white"/>
</g>
<defs>
<linearGradient id="paint0_linear_2088_43" x1="0" y1="0" x2="52.8017" y2="3.15818" gradientUnits="userSpaceOnUse">
<stop stop-color="#FF5C65"/>
<stop offset="0.53125" stop-color="#FD008B"/>
<stop offset="1" stop-color="#6500FC"/>
</linearGradient>
<linearGradient id="paint1_linear_2088_43" x1="26.9531" y1="7.8125" x2="42.2655" y2="11.3844" gradientUnits="userSpaceOnUse">
<stop stop-color="#FF5C65"/>
<stop offset="0.53125" stop-color="#FD008B"/>
<stop offset="1" stop-color="#6500FC"/>
</linearGradient>
<clipPath id="clip0_2088_43">
<rect width="50" height="50" fill="white"/>
</clipPath>
</defs>
</svg>
