<svg width="50" height="50" viewBox="0 0 50 50" fill="none" xmlns="http://www.w3.org/2000/svg">
<path d="M44.1406 23.0469H5.85938C2.62852 23.0469 0 20.4184 0 17.1875V9.375C0 6.14414 2.62852 3.51562 5.85938 3.51562H44.1406C47.3715 3.51562 50 6.14414 50 9.375V17.1875C50 20.4184 47.3715 23.0469 44.1406 23.0469ZM5.85938 7.42188C4.78242 7.42188 3.90625 8.29805 3.90625 9.375V17.1875C3.90625 18.2645 4.78242 19.1406 5.85938 19.1406H44.1406C45.2176 19.1406 46.0938 18.2645 46.0938 17.1875V9.375C46.0938 8.29805 45.2176 7.42188 44.1406 7.42188H5.85938Z" fill="white"/>
<path d="M9.76562 15.2344C10.8443 15.2344 11.7188 14.3599 11.7188 13.2812C11.7188 12.2026 10.8443 11.3281 9.76562 11.3281C8.68694 11.3281 7.8125 12.2026 7.8125 13.2812C7.8125 14.3599 8.68694 15.2344 9.76562 15.2344Z" fill="url(#paint0_linear_1738_23)"/>
<path d="M17.5781 15.2344C18.6568 15.2344 19.5312 14.3599 19.5312 13.2812C19.5312 12.2026 18.6568 11.3281 17.5781 11.3281C16.4994 11.3281 15.625 12.2026 15.625 13.2812C15.625 14.3599 16.4994 15.2344 17.5781 15.2344Z" fill="url(#paint1_linear_1738_23)"/>
<path d="M40.625 15.2344H32.8125C31.7338 15.2344 30.8594 14.36 30.8594 13.2812C30.8594 12.2025 31.7338 11.3281 32.8125 11.3281H40.625C41.7037 11.3281 42.5781 12.2025 42.5781 13.2812C42.5781 14.36 41.7037 15.2344 40.625 15.2344Z" fill="white"/>
<path d="M44.1406 46.4844H5.85938C2.62852 46.4844 0 43.8559 0 40.625V32.8125C0 29.5816 2.62852 26.9531 5.85938 26.9531H44.1406C47.3715 26.9531 50 29.5816 50 32.8125V40.625C50 43.8559 47.3715 46.4844 44.1406 46.4844ZM5.85938 30.8594C4.78242 30.8594 3.90625 31.7355 3.90625 32.8125V40.625C3.90625 41.702 4.78242 42.5781 5.85938 42.5781H44.1406C45.2176 42.5781 46.0938 41.702 46.0938 40.625V32.8125C46.0938 31.7355 45.2176 30.8594 44.1406 30.8594H5.85938Z" fill="white"/>
<path d="M9.76562 38.6719C10.8443 38.6719 11.7188 37.7974 11.7188 36.7188C11.7188 35.6401 10.8443 34.7656 9.76562 34.7656C8.68694 34.7656 7.8125 35.6401 7.8125 36.7188C7.8125 37.7974 8.68694 38.6719 9.76562 38.6719Z" fill="url(#paint2_linear_1738_23)"/>
<path d="M17.5781 38.6719C18.6568 38.6719 19.5312 37.7974 19.5312 36.7188C19.5312 35.6401 18.6568 34.7656 17.5781 34.7656C16.4994 34.7656 15.625 35.6401 15.625 36.7188C15.625 37.7974 16.4994 38.6719 17.5781 38.6719Z" fill="url(#paint3_linear_1738_23)"/>
<path d="M40.625 38.6719H32.8125C31.7338 38.6719 30.8594 37.7975 30.8594 36.7188C30.8594 35.64 31.7338 34.7656 32.8125 34.7656H40.625C41.7037 34.7656 42.5781 35.64 42.5781 36.7188C42.5781 37.7975 41.7037 38.6719 40.625 38.6719Z" fill="white"/>
<defs>
<linearGradient id="paint0_linear_1738_23" x1="7.8125" y1="11.3281" x2="11.9376" y2="11.5749" gradientUnits="userSpaceOnUse">
<stop stop-color="#FF5C65"/>
<stop offset="0.53125" stop-color="#FD008B"/>
<stop offset="1" stop-color="#6500FC"/>
</linearGradient>
<linearGradient id="paint1_linear_1738_23" x1="15.625" y1="11.3281" x2="19.7501" y2="11.5749" gradientUnits="userSpaceOnUse">
<stop stop-color="#FF5C65"/>
<stop offset="0.53125" stop-color="#FD008B"/>
<stop offset="1" stop-color="#6500FC"/>
</linearGradient>
<linearGradient id="paint2_linear_1738_23" x1="7.8125" y1="34.7656" x2="11.9376" y2="35.0124" gradientUnits="userSpaceOnUse">
<stop stop-color="#FF5C65"/>
<stop offset="0.53125" stop-color="#FD008B"/>
<stop offset="1" stop-color="#6500FC"/>
</linearGradient>
<linearGradient id="paint3_linear_1738_23" x1="15.625" y1="34.7656" x2="19.7501" y2="35.0124" gradientUnits="userSpaceOnUse">
<stop stop-color="#FF5C65"/>
<stop offset="0.53125" stop-color="#FD008B"/>
<stop offset="1" stop-color="#6500FC"/>
</linearGradient>
</defs>
</svg>
