<svg width="102" height="102" viewBox="0 0 102 102" fill="none" xmlns="http://www.w3.org/2000/svg">
<path d="M101.394 50.5217C101.465 60.5484 98.5607 70.3709 93.049 78.7471C87.5374 87.1233 79.6657 93.6771 70.4294 97.5796C61.193 101.482 51.0068 102.558 41.159 100.672C31.3111 98.785 22.2438 94.0207 15.1037 86.981C7.96353 79.9413 3.0713 70.9424 1.0455 61.1222C-0.980299 51.302 -0.0486272 41.1016 3.72271 31.8109C7.49405 22.5203 13.9356 14.5565 22.233 8.92682C30.5303 3.29711 40.3107 0.25437 50.3374 0.183124C56.9962 0.132179 63.5996 1.39412 69.7703 3.897C75.941 6.39989 81.5578 10.0945 86.2996 14.7697C91.0414 19.4448 94.8152 25.0088 97.4052 31.1434C99.9952 37.278 101.351 43.8629 101.394 50.5217Z" fill="url(#paint0_linear_2668_458)"/>
<path d="M44.7598 81.4505C41.9985 81.3124 35.8132 78.91 19.2454 55.8531C18.8429 55.2928 18.5547 54.6589 18.3972 53.9872C18.2397 53.3156 18.2161 52.6194 18.3276 51.9386C18.4391 51.2579 18.6837 50.6058 19.0472 50.0195C19.4108 49.4333 19.8863 48.9244 20.4465 48.5219C21.0068 48.1194 21.6408 47.8311 22.3125 47.6737C22.9841 47.5162 23.6802 47.4925 24.361 47.604C25.0417 47.7156 25.6938 47.9601 26.2801 48.3237C26.8664 48.6873 27.3753 49.1628 27.7778 49.7231C32.659 56.6562 38.0689 63.2015 43.9591 69.3006C51.249 57.3166 72.2625 24.1256 73.2842 22.5241C73.6092 21.8683 74.0677 21.2877 74.6304 20.8197C75.1931 20.3516 75.8475 20.0066 76.5515 19.8066C77.2556 19.6066 77.9937 19.5562 78.7184 19.6584C79.4431 19.7607 80.1385 20.0135 80.7597 20.4005C81.3809 20.7875 81.9142 21.3002 82.3254 21.9057C82.7366 22.5112 83.0166 23.1961 83.1473 23.9162C83.2781 24.6363 83.2567 25.3757 83.0846 26.0871C82.9125 26.7985 82.5935 27.466 82.148 28.0467C74.223 40.5554 53.1819 73.9121 50.9452 77.9712C50.4279 78.9314 49.675 79.7443 48.7573 80.3336C47.8395 80.9229 46.7871 81.2691 45.6988 81.3399L44.7598 81.4505Z" fill="white"/>
<defs>
<linearGradient id="paint0_linear_2668_458" x1="0" y1="0.181641" x2="107.077" y2="6.58613" gradientUnits="userSpaceOnUse">
<stop stop-color="#FF5C65"/>
<stop offset="0.53125" stop-color="#FD008B"/>
<stop offset="1" stop-color="#6500FC"/>
</linearGradient>
</defs>
</svg>
