<svg width="50" height="50" viewBox="0 0 50 50" fill="none" xmlns="http://www.w3.org/2000/svg">
<path opacity="0.4" d="M28.6469 20.2149V16.0069C27.8208 16.0069 27.1358 15.3414 27.1358 14.539V9.5285C27.1358 8.86109 26.5918 8.33459 25.9068 8.33459H12.0649C7.71285 8.33459 4.16675 11.7773 4.16675 16.0069V21.0741C4.16675 21.4675 4.32793 21.8394 4.61001 22.1134C4.89209 22.3854 5.2749 22.542 5.67787 22.542C7.20914 22.542 8.37774 23.5989 8.37774 24.9885C8.37774 26.4388 7.18899 27.5936 5.69802 27.6112C4.87194 27.6112 4.16675 28.1788 4.16675 29.0008V34.0133C4.16675 38.2408 7.71285 41.666 12.0447 41.666H25.9068C26.5918 41.666 27.1358 41.1356 27.1358 40.4721V36.2425C27.1358 35.4225 27.8208 34.7746 28.6469 34.7746V30.9796C27.8208 30.9796 27.1358 30.3122 27.1358 29.5117V21.6828C27.1358 20.8803 27.8208 20.2149 28.6469 20.2149Z" fill="#56CCF2"/>
<path d="M41.6225 24.9895C41.6225 26.4379 42.8314 27.5926 44.3022 27.6122C45.1283 27.6122 45.8335 28.1798 45.8335 28.9822V34.0123C45.8335 38.2418 42.3075 41.667 37.9555 41.667H31.3871C30.7222 41.667 30.1581 41.1365 30.1581 40.4711V36.2435C30.1581 35.4215 29.4932 34.7756 28.647 34.7756V30.9806C29.4932 30.9806 30.1581 30.3131 30.1581 29.5126V21.6838C30.1581 20.8794 29.4932 20.2159 28.647 20.2159V16.0059C29.4932 16.0059 30.1581 15.3404 30.1581 14.538V9.52948C30.1581 8.86207 30.7222 8.33362 31.3871 8.33362H37.9555C42.3075 8.33362 45.8335 11.7587 45.8335 15.9863V20.9185C45.8335 21.31 45.6723 21.6838 45.3902 21.9558C45.1081 22.2298 44.7253 22.3864 44.3223 22.3864C42.8314 22.3864 41.6225 23.5627 41.6225 24.9895Z" fill="#56CCF2"/>
</svg>
